<svg width="771" height="812" viewBox="0 0 771 812" fill="none" xmlns="http://www.w3.org/2000/svg">
<path d="M570 804L584.712 801L606.212 795.5C610.212 794.52 616.712 792.5 616.712 792.5L625.212 789.5C660.562 776.01 693.542 758.38 720.212 731C744.582 705.98 767.212 667.5 770.2 606.897L770.39 585.217C769.55 569.697 767.87 551.567 764.73 537.747C756.141 501.138 738.1 468.557 711.811 441.707C661.151 389.547 578.79 356.207 510.15 335.287C469.71 322.967 428.09 308.777 392.54 285.887C378.89 277.107 367.65 265.987 359.98 251.607C354.46 241.257 352.61 228.847 353.08 217.157C353.86 197.797 360.68 179.687 374.17 165.467C404.54 133.447 451.38 128.277 493.46 130.277C519.22 132.517 545.34 140.657 567.43 154.427L582.12 167.647C582.12 167.647 586 171.497 589 176.097C594.504 182.857 600.173 197.794 602.32 204.417C606.08 217.657 607.81 230.457 607.66 243.997H770.45C770.83 208.467 763.51 172.857 747.43 140.487C744.76 136.017 727.81 107.947 724.76 104.047L714.21 91.1868C684.46 58.6768 642.58 32.787 601.63 18.677C539.94 -2.47293 466.3 -4.54351 402.47 6.86648C368.95 12.8665 337.4 23.1175 307.23 38.5374C267.08 59.0574 234.23 88.1871 212.56 127.967C187.91 173.227 183.95 228.197 198 277.397C218.89 350.537 283.7 398.417 349.89 428.927C375.46 440.707 400.88 450.827 427.53 459.777L459.15 470.397L498.55 484.057C515.53 489.947 531.31 497.237 547.47 505.037C576.73 520.687 598.49 539.827 606.21 574.656C607.04 584.876 607.271 593.396 606.74 603.697C606.21 613.997 599.65 629.017 599.65 629.017C591 646.997 578.01 656.747 564.521 664.267L549.061 671.747L528.08 677.317L507.13 680.637L502.061 681.087L482.48 680.857C449.99 680.477 415.3 676.257 386.51 660.747C363.13 648.327 345.92 628.447 337.28 603.367C331.41 586.377 329.06 569.267 329.34 550.507L166 550.527L172.29 610.097C175.88 626.167 180.76 641.797 188.58 656.147C196.78 671.637 206 692 232.7 718.757L237.83 723.757C254.07 739.597 272.22 752.267 292.17 763.367C341.98 791.087 397.31 805.387 454.89 809.177L454.91 809.167L482.5 811C508.67 811.84 559.212 805.5 559.212 805.5L570 804Z" fill="white"/>
<path d="M97.2982 606.137L7.26819 606.287C6.62819 606.287 5.81819 604.947 5.51819 603.777V264.237H97.2782V606.127L97.2982 606.137Z" fill="white"/>
<path d="M81.0681 215.917C57.3581 230.187 16.3081 225.507 3.80815 195.347C-1.23185 183.197 -1.21185 169.537 3.52815 157.337C13.7681 130.927 45.0481 124.297 69.7781 131.277C90.5881 137.157 103.238 155.687 102.718 176.967C102.318 193.217 95.1181 207.467 81.0781 215.917H81.0681Z" fill="white"/>
</svg>
