<svg width="1024" height="1023" viewBox="0 0 1024 1023" fill="none" xmlns="http://www.w3.org/2000/svg">
<g clip-path="url(#clip0_9_4)">
<path d="M561.781 -0.954956C561.781 1.04504 555.555 10.3119 552.657 16.045C383.353 350.896 693.771 907.119 751.524 1013.29C753.622 1017.15 756.781 1022.55 756.781 1023.05" stroke="#DA6855" stroke-width="6"/>
<path d="M577.281 -0.954823C577.281 2.04518 573.382 7.34674 571.541 11.5452C425.544 344.528 746.953 899.936 800.21 1009.54C803.011 1015.31 806.281 1022.04 806.281 1023.05" stroke="#01609A" stroke-width="6"/>
<path d="M611.281 -0.95443C611.281 2.54557 605.62 11.8627 602.781 18.3642C448.92 370.707 760.886 900.201 815.931 1008.54C819.129 1014.84 822.781 1021.54 822.781 1023.04" stroke="#012869" stroke-width="6"/>
<path d="M628.781 -0.954346C628.781 -0.454346 624.08 5.0158 621.812 8.04565C416.059 290.546 679.281 838.545 778.994 1017.05C780.466 1019.8 780.781 1022.05 780.781 1023.04" stroke="#FAA633" stroke-width="6"/>
<path d="M0.28125 344.545C1.28125 344.545 5.10506 346.995 7.52945 348.186C374.853 528.627 931.852 192.763 1018.28 150.088C1020.62 149.026 1023.78 147.545 1024.28 147.545" stroke="#DA6855" stroke-width="6"/>
<path d="M0.28132 328.545C0.781319 328.545 5.91776 331.568 9.78119 333.236C350.959 480.516 923.476 143.156 1018.78 99.8933C1022 98.4314 1023.28 97.5451 1024.28 97.5451" stroke="#01609A" stroke-width="6"/>
<path d="M0.281311 294.545C1.28131 294.545 4.97473 297.282 9.03738 299.045C372.545 456.786 929.757 131.028 1017.01 84.7864C1019.93 83.396 1023.78 81.5451 1024.28 81.5451" stroke="#012869" stroke-width="6"/>
<path d="M0.281494 277.545C2.28143 277.545 8.2457 283.051 12.2815 285.684C324.781 497.545 898.27 187.233 1018.78 127.045C1023.36 124.757 1022.78 124.545 1024.28 124.545" stroke="#FAA633" stroke-width="6"/>
<path d="M1024.28 713.545C1023.28 713.545 1016.65 709.286 1012.78 707.255C677.302 530.957 110.883 849.107 7.08566 905.545C3.74266 907.363 1.28131 910.045 0.281273 910.045" stroke="#DA6855" stroke-width="6"/>
<path d="M1024.28 729.545C1023.28 729.545 1016.34 725.812 1012.33 724.045C667.234 572.074 110.118 906.939 9.7812 955.045C5.65342 957.024 0.781165 960.045 0.281167 960.045" stroke="#01609A" stroke-width="6"/>
<path d="M1024.28 764.045C1023.28 764.045 1014.98 759.536 1010.28 757.408C656.332 597.206 118.67 917.173 13.2813 970.443C7.70921 973.259 0.781246 976.545 0.281203 976.545" stroke="#012869" stroke-width="6"/>
<path d="M1024.28 781.045C1023.28 781.045 1016.33 774.821 1012.28 771.855C713.281 568.545 174.918 842.242 7.47905 929.779C4.99514 931.078 0.781189 933.545 0.281225 933.545" stroke="#FAA633" stroke-width="6"/>
<path d="M266.281 1023.05C266.281 1022.04 269.327 1017.06 270.797 1014.04C443.117 660.755 130.442 128.852 72.7812 14.0447C69.1736 6.86177 64.7812 0.544711 64.7812 -0.955241" stroke="#DA6855" stroke-width="6"/>
<path d="M238.281 1023.04C238.281 1022.04 244.143 1011.76 246.888 1006.04C422.781 652.045 110.237 118.249 58.6307 12.0434C55.9548 6.5365 52.7811 0.543411 52.7811 -0.956546" stroke="#01609A" stroke-width="6"/>
<path d="M215.281 1023.04C215.281 1022.54 218.822 1015.4 220.508 1011.54C374.23 660.173 67.0535 131.053 9.78106 19.0459C6.18892 12.0208 1.28104 3.5459 0.281029 3.54585" stroke="#012869" stroke-width="6"/>
<path d="M199.781 1023.04C199.781 1021.04 204.132 1017.07 206.463 1013.54C419.045 691.554 106.518 126.84 48.8602 13.5454C45.6833 7.30279 42.2812 3.0445 42.2812 -0.955532" stroke="#FAA633" stroke-width="6"/>
</g>
<defs>
<clipPath id="clip0_9_4">
<rect width="1024" height="1024" fill="white" transform="translate(0 -1)"/>
</clipPath>
</defs>
</svg>
