<?xml version="1.0" encoding="UTF-8" standalone="no"?>
<!-- Created with Inkscape (http://www.inkscape.org/) -->

<svg
   version="1.1"
   id="svg2"
   xml:space="preserve"
   width="264.57333"
   height="112.73333"
   viewBox="0 0 264.57333 112.73333"
   sodipodi:docname="logo_SUPSI_30mm_ITA.eps"
   xmlns:inkscape="http://www.inkscape.org/namespaces/inkscape"
   xmlns:sodipodi="http://sodipodi.sourceforge.net/DTD/sodipodi-0.dtd"
   xmlns="http://www.w3.org/2000/svg"
   xmlns:svg="http://www.w3.org/2000/svg"><defs
     id="defs6" /><sodipodi:namedview
     id="namedview4"
     pagecolor="#ffffff"
     bordercolor="#666666"
     borderopacity="1.0"
     inkscape:pageshadow="2"
     inkscape:pageopacity="0.0"
     inkscape:pagecheckerboard="0" /><g
     id="g8"
     inkscape:groupmode="layer"
     inkscape:label="ink_ext_XXXXXX"
     transform="matrix(1.3333333,0,0,-1.3333333,0,112.73333)"><g
       id="g10"
       transform="scale(0.1)"><path
         d="m 171.973,234.543 c -23.614,11.402 -46.817,21.289 -63.496,32.5 -16.7973,11.402 -26.0551,22.809 -26.1137,38.473 0.1758,13.703 5.0976,22.57 14.707,29.289 9.5897,6.679 24.6877,10.547 43.9847,10.547 35.234,-0.079 56.074,-6.719 80.355,-14.805 l 6.426,-2.149 21.035,54.805 -6.172,2.695 C 217.543,396.836 188.906,407.051 139.492,406.973 107.031,406.934 75.7422,399.102 52.0313,382.148 28.2422,365.234 12.5,338.633 12.6172,303.84 12.5391,236.418 63.0469,207.707 109.258,186.809 c 23.32,-10.707 46.25,-20.082 62.578,-31.528 16.387,-11.558 25.781,-23.75 25.898,-42.461 C 197.578,94.543 189.336,83.5234 175.313,75.4375 161.289,67.4727 141.113,63.8398 120.078,63.918 83.1836,63.9531 59.2383,70.4766 29.4531,82.7422 L 22.8125,85.3984 0,28.1367 5.58594,25.1289 C 29.4531,12.3438 62.3828,0 120.723,0 c 0.136,0 0.273,0 0.41,0 38.769,0.0390625 75.469,8.39844 103.051,27.2344 27.597,18.75 45.566,48.7109 45.41,88.9066 -0.059,65.39 -50.781,95.976 -97.621,118.402"
         style="fill:#231f20;fill-opacity:1;fill-rule:nonzero;stroke:none"
         id="path12" /><path
         d="m 591.586,168.992 c 0,-41.25 -10.449,-67.422 -26.777,-83.3943 -16.329,-15.9805 -39.746,-22.8164 -68.047,-22.8946 -26.856,0 -50.274,6.0586 -66.68,20.2735 -16.406,14.1797 -27.109,36.8364 -27.187,73.6324 v 245.5 H 329.379 V 152.781 C 329.262,93.918 350.922,54.6953 383.09,31.3398 415.219,7.92969 456.684,0.0390625 496.762,0.0390625 c 37.715,0 78.945,8.8671875 111.211,34.4648375 32.304,25.5859 54.59,68.1991 54.472,132.3051 v 235.3 H 591.586 V 168.992"
         style="fill:#231f20;fill-opacity:1;fill-rule:nonzero;stroke:none"
         id="path14" /><path
         d="m 1247.92,234.543 c -23.64,11.48 -46.84,21.324 -63.56,32.5 -16.8,11.402 -26.05,22.809 -26.09,38.473 0.11,13.703 5.07,22.531 14.68,29.289 9.61,6.679 24.73,10.547 44.03,10.468 35.31,0 56.05,-6.64 80.31,-14.726 l 6.45,-2.109 21.05,54.765 -6.17,2.695 c -25.12,10.938 -53.79,21.153 -103.24,21.075 -32.43,-0.039 -63.75,-7.871 -87.46,-24.825 -23.75,-16.914 -39.5,-43.515 -39.38,-78.308 -0.04,-67.422 50.43,-96.133 96.6,-117.031 23.32,-10.746 46.21,-20.082 62.54,-31.45 16.37,-11.636 25.74,-23.867 25.9,-42.539 -0.2,-18.277 -8.28,-29.2966 -22.31,-37.3825 -14.06,-7.9648 -34.21,-11.5977 -55.31,-11.5195 -36.87,0 -60.82,6.5586 -90.66,18.8242 l -6.64,2.6562 -22.74,-57.2617 5.59,-3.0078 C 1105.34,12.3438 1138.23,0 1196.59,0 c 0.15,0 0.31,0 0.47,0 38.78,0.0390625 75.39,8.39844 103,27.2344 27.58,18.75 45.55,48.7109 45.39,88.9066 -0.03,65.39 -50.82,95.976 -97.53,118.402"
         style="fill:#231f20;fill-opacity:1;fill-rule:nonzero;stroke:none"
         id="path16" /><path
         d="M 1416.39,402.109 V 6.52344 h 71.92 V 402.109 h -71.92"
         style="fill:#231f20;fill-opacity:1;fill-rule:nonzero;stroke:none"
         id="path18" /><path
         d="M 912.105,402.109 H 739.379 V 6.52344 h 72.5 V 341.523 h 88.332 c 27.598,-0.039 45.937,-6.601 57.461,-18.164 11.582,-11.593 17.5,-29.402 17.5,-54.519 -0.606,-49.531 -30.215,-71.328 -87.93,-72.27 H 867.398 V 135.398 H 884 c 55,0 96.563,15.04 124.46,39.731 27.81,24.723 41.45,59.019 41.37,95.855 0.08,41.368 -13.56,74.641 -37.99,97.102 -24.395,22.578 -59.051,34.062 -99.735,34.023"
         style="fill:#231f20;fill-opacity:1;fill-rule:nonzero;stroke:none"
         id="path20" /><path
         d="m 9.02344,751.664 3.35936,8.77 c 6.7188,-3.34 13.5156,-5.801 22.168,-5.801 10.039,0 21.3867,3.867 21.3867,15.586 0,22.812 -44.707,16.621 -44.707,46.504 0,14.687 12.6172,22.558 27.1679,22.558 10.3125,0 16.875,-2.07 22.4219,-5.039 L 57.6172,826 c -5.9375,2.695 -11.7383,4.375 -18.9453,4.375 -9.4141,0 -17.2656,-4.102 -17.2656,-13.398 0,-20.469 45.2148,-17.129 45.2148,-45.977 0,-17.383 -14.6875,-25.625 -32.207,-25.625 -11.3282,0 -20.0782,3.086 -25.39066,6.289"
         style="fill:#231f20;fill-opacity:1;fill-rule:nonzero;stroke:none"
         id="path22" /><path
         d="m 79.4141,780.648 c 0,25.274 12.8711,38.399 33.3589,38.399 8.75,0 15.196,-2.324 18.672,-4.258 l -3.086,-8.105 c -2.832,1.152 -8.496,3.476 -15.586,3.476 -14.6871,0 -22.9292,-9.394 -22.9292,-28.984 0,-17.403 6.4453,-27.051 25.6252,-27.051 6.191,0 9.922,1.016 14.297,2.188 l 1.562,-8.243 c -4.258,-1.406 -9.023,-2.695 -16.875,-2.695 -23.828,0 -35.0389,11.328 -35.0389,35.273"
         style="fill:#231f20;fill-opacity:1;fill-rule:nonzero;stroke:none"
         id="path24" /><path
         d="m 146.953,772.406 v 44.844 h 10.039 v -42.773 c 0,-11.075 0.899,-19.844 13.516,-19.844 9.023,0 17.265,4.902 22.695,8.769 v 53.848 h 9.766 v -70.352 h -9.766 v 8.243 c -6.719,-4.766 -13.672,-9.766 -25.527,-9.766 -19.317,0 -20.723,15.195 -20.723,27.031"
         style="fill:#231f20;fill-opacity:1;fill-rule:nonzero;stroke:none"
         id="path26" /><path
         d="m 273.754,781.82 c 0,13.262 -3.867,28.868 -21.133,28.868 -17.266,0 -21.641,-15.469 -21.641,-28.868 0,-14.414 5.157,-28.086 21.641,-28.086 16.992,0 21.133,14.297 21.133,28.086 z m -53.086,-0.507 c 0,24.335 13.145,37.734 32.734,37.734 19.961,0 30.645,-13.399 30.645,-36.582 0,-25.371 -13.652,-37.09 -32.07,-37.09 -19.317,0 -31.309,12.871 -31.309,35.938"
         style="fill:#231f20;fill-opacity:1;fill-rule:nonzero;stroke:none"
         id="path28" /><path
         d="m 301.723,844.047 h 10.195 v -97.149 h -10.195 v 97.149"
         style="fill:#231f20;fill-opacity:1;fill-rule:nonzero;stroke:none"
         id="path30" /><path
         d="m 371.957,761.859 v 18.282 l -16.875,-0.645 c -10.957,-0.371 -16.992,-5.273 -16.992,-13.516 0,-8.125 5.781,-11.972 13.515,-11.972 7.735,0 15.079,3.984 20.352,7.851 z m -43.672,3.711 c 0,17.539 15.469,21.133 26.914,21.407 l 16.758,0.234 v 9.023 c 0,11.211 -5.273,13.926 -16.367,13.926 -7.578,0 -13.262,-1.308 -19.063,-3.476 l -2.304,7.988 c 5.39,2.305 13.261,4.375 22.793,4.375 15.449,0 24.863,-5.664 24.863,-19.453 v -38.906 c 0,-5.274 4.238,-6.446 7.598,-6.446 l -0.391,-7.851 c -0.645,-0.118 -1.934,-0.254 -2.832,-0.254 -6.172,0 -12.617,2.578 -13.516,8.886 -3.476,-2.695 -11.347,-9.257 -23.457,-9.257 -12.754,0 -20.996,7.07 -20.996,19.804"
         style="fill:#231f20;fill-opacity:1;fill-rule:nonzero;stroke:none"
         id="path32" /><path
         d="m 437.836,772.406 v 44.844 h 10.059 v -42.773 c 0,-11.075 0.898,-19.844 13.515,-19.844 9.024,0 17.266,4.902 22.676,8.769 v 53.848 h 9.785 v -70.352 h -9.785 v 8.243 c -6.699,-4.766 -13.652,-9.766 -25.527,-9.766 -19.297,0 -20.723,15.195 -20.723,27.031"
         style="fill:#231f20;fill-opacity:1;fill-rule:nonzero;stroke:none"
         id="path34" /><path
         d="m 515.551,817.25 h 10.176 v -7.988 c 7.343,5.41 14.16,9.785 25.117,9.785 19.98,0 21.269,-14.961 21.269,-26.797 v -45.352 h -9.922 v 43.418 c 0,12.129 -1.933,19.707 -13.906,19.707 -9.023,0 -16.25,-4.257 -22.558,-8.632 v -54.493 h -10.176 v 70.352"
         style="fill:#231f20;fill-opacity:1;fill-rule:nonzero;stroke:none"
         id="path36" /><path
         d="m 593.266,833.09 v 11.973 h 9.902 V 833.09 Z m -0.137,-15.84 h 10.312 v -70.352 h -10.312 v 70.352"
         style="fill:#231f20;fill-opacity:1;fill-rule:nonzero;stroke:none"
         id="path38" /><path
         d="m 616.84,817.25 h 11.094 l 14.687,-48.32 4.649,-14.922 4.882,15.195 16.758,48.047 h 10.43 L 653.949,746.898 H 639.906 L 616.84,817.25"
         style="fill:#231f20;fill-opacity:1;fill-rule:nonzero;stroke:none"
         id="path40" /><path
         d="m 733.852,787.758 c 0,14.277 -5.02,23.301 -16.485,23.301 -10.176,0 -18.027,-7.598 -19.199,-23.301 z m -46.114,-7.11 c 0,27.461 13.535,38.399 30.664,38.399 17.891,0 26.016,-11.719 26.016,-35.156 v -3.75 h -46.367 c 0.254,-21.758 11.328,-26.016 24.726,-26.016 6.836,0 12.11,1.152 18.672,3.203 l 1.797,-8.242 c -5.273,-2.188 -13.262,-3.711 -22.148,-3.711 -20.469,0 -33.36,8.477 -33.36,35.273"
         style="fill:#231f20;fill-opacity:1;fill-rule:nonzero;stroke:none"
         id="path42" /><path
         d="m 761.957,817.25 h 10.195 v -9.414 c 3.223,5.273 10.176,10.937 20.078,10.937 4.141,0 6.973,-0.761 8.262,-1.132 l -1.679,-8.633 c -2.208,0.508 -4.258,0.898 -8.379,0.898 -8.496,0 -14.942,-6.054 -18.282,-11.211 v -51.797 h -10.195 v 70.352"
         style="fill:#231f20;fill-opacity:1;fill-rule:nonzero;stroke:none"
         id="path44" /><path
         d="m 806.449,748.461 1.68,8.633 c 6.172,-1.817 12.734,-3.086 18.789,-3.086 10.324,0 16.887,3.984 16.887,10.937 0,15.703 -35.442,11.211 -35.442,34.395 0,12.871 10.703,19.707 23.86,19.707 5.527,0 12.617,-1.172 17.636,-3.359 l -2.304,-8.106 c -4.532,1.816 -10.313,2.949 -15.469,2.949 -9.66,0 -13.801,-4.492 -13.801,-10.293 0,-16.113 35.188,-11.347 35.188,-34.668 0,-15.058 -14.825,-20.195 -27.336,-20.195 -6.563,0 -14.532,1.406 -19.688,3.086"
         style="fill:#231f20;fill-opacity:1;fill-rule:nonzero;stroke:none"
         id="path46" /><path
         d="m 869.742,833.09 v 11.973 h 9.922 V 833.09 Z m -0.137,-15.84 h 10.293 v -70.352 h -10.293 v 70.352"
         style="fill:#231f20;fill-opacity:1;fill-rule:nonzero;stroke:none"
         id="path48" /><path
         d="m 904.273,766.488 v 42.129 h -10.312 v 8.633 h 10.312 v 14.414 h 9.922 V 817.25 h 22.032 v -8.633 h -21.914 v -41.738 c 0,-9.922 4.511,-12.637 12.617,-12.637 3.867,0 8.906,1.035 11.855,2.071 l 1.817,-8.36 c -3.614,-1.289 -10.196,-2.578 -14.961,-2.578 -13.125,0 -21.368,4.492 -21.368,21.113"
         style="fill:#231f20;fill-opacity:1;fill-rule:nonzero;stroke:none"
         id="path50" /><path
         d="m 991.391,761.859 v 18.282 l -16.883,-0.645 c -10.957,-0.371 -17.012,-5.273 -17.012,-13.516 0,-8.125 5.801,-11.972 13.535,-11.972 7.715,0 15.067,3.984 20.36,7.851 z m -43.68,3.711 c 0,17.539 15.449,21.133 26.914,21.407 l 16.766,0.234 v 9.023 c 0,11.211 -5.293,13.926 -16.375,13.926 -7.598,0 -13.282,-1.308 -19.063,-3.476 l -2.324,7.988 c 5.41,2.305 13.262,4.375 22.793,4.375 15.476,0 24.888,-5.664 24.888,-19.453 v -38.906 c 0,-5.274 4.24,-6.446 7.58,-6.446 l -0.39,-7.851 c -0.62,-0.118 -1.91,-0.254 -2.81,-0.254 -6.194,0 -12.62,2.578 -13.518,8.886 -3.496,-2.695 -11.375,-9.257 -23.484,-9.257 -12.735,0 -20.977,7.07 -20.977,19.804"
         style="fill:#231f20;fill-opacity:1;fill-rule:nonzero;stroke:none"
         id="path52" /><path
         d="m 1024.13,817.25 h 10.19 v -9.414 c 3.2,5.273 10.16,10.937 20.08,10.937 4.14,0 6.95,-0.761 8.24,-1.132 l -1.68,-8.633 c -2.19,0.508 -4.26,0.898 -8.36,0.898 -8.51,0 -14.96,-6.054 -18.28,-11.211 v -51.797 h -10.19 v 70.352"
         style="fill:#231f20;fill-opacity:1;fill-rule:nonzero;stroke:none"
         id="path54" /><path
         d="m 1074.13,833.09 v 11.973 h 9.92 V 833.09 Z m -0.12,-15.84 h 10.31 v -70.352 h -10.31 v 70.352"
         style="fill:#231f20;fill-opacity:1;fill-rule:nonzero;stroke:none"
         id="path56" /><path
         d="m 1144.48,761.859 v 18.282 l -16.88,-0.645 c -10.93,-0.371 -16.99,-5.273 -16.99,-13.516 0,-8.125 5.78,-11.972 13.52,-11.972 7.73,0 15.07,3.984 20.35,7.851 z m -43.67,3.711 c 0,17.539 15.46,21.133 26.91,21.407 l 16.76,0.234 v 9.023 c 0,11.211 -5.28,13.926 -16.37,13.926 -7.62,0 -13.28,-1.308 -19.06,-3.476 l -2.31,7.988 c 5.39,2.305 13.25,4.375 22.78,4.375 15.47,0 24.88,-5.664 24.88,-19.453 v -38.906 c 0,-5.274 4.26,-6.446 7.58,-6.446 l -0.39,-7.851 c -0.63,-0.118 -1.92,-0.254 -2.82,-0.254 -6.17,0 -12.61,2.578 -13.51,8.886 -3.48,-2.695 -11.33,-9.257 -23.44,-9.257 -12.77,0 -21.01,7.07 -21.01,19.804"
         style="fill:#231f20;fill-opacity:1;fill-rule:nonzero;stroke:none"
         id="path58" /><path
         d="m 1258.77,782.602 c 0,13.007 -4.1,27.421 -19.18,27.421 -8.35,0 -14.8,-4.257 -18.55,-6.699 v -47.91 c 2.07,-0.273 7.73,-1.406 13.28,-1.406 17.89,0 24.45,11.972 24.45,28.594 z m -47.89,34.648 h 10.16 v -5.801 c 6.17,4.239 11.99,7.324 20.63,7.324 16.87,0 27.42,-12.617 27.42,-35.546 0,-28.321 -16.1,-37.735 -34.65,-37.735 -4.49,0 -10.16,0.645 -13.4,1.172 v -28.086 h -10.16 v 98.672"
         style="fill:#231f20;fill-opacity:1;fill-rule:nonzero;stroke:none"
         id="path60" /><path
         d="m 1286.94,817.25 h 10.15 v -9.414 c 3.21,5.273 10.16,10.937 20.08,10.937 4.14,0 6.96,-0.761 8.25,-1.132 l -1.68,-8.633 c -2.19,0.508 -4.22,0.898 -8.36,0.898 -8.48,0 -14.96,-6.054 -18.29,-11.211 v -51.797 h -10.15 v 70.352"
         style="fill:#231f20;fill-opacity:1;fill-rule:nonzero;stroke:none"
         id="path62" /><path
         d="m 1385.88,781.82 c 0,13.262 -3.9,28.868 -21.13,28.868 -17.26,0 -21.64,-15.469 -21.64,-28.868 0,-14.414 5.16,-28.086 21.64,-28.086 16.99,0 21.13,14.297 21.13,28.086 z m -53.08,-0.507 c 0,24.335 13.12,37.734 32.69,37.734 20,0 30.67,-13.399 30.67,-36.582 0,-25.371 -13.64,-37.09 -32.07,-37.09 -19.34,0 -31.29,12.871 -31.29,35.938"
         style="fill:#231f20;fill-opacity:1;fill-rule:nonzero;stroke:none"
         id="path64" /><path
         d="m 1417.37,809.008 h -10.31 v 8.242 h 10.31 v 4.766 c 0,17.109 10.15,23.437 22.77,23.437 4.88,0 8.01,-0.508 10.82,-1.406 l -1.79,-8.242 c -1.96,0.508 -4.15,1.015 -8.91,1.015 -8.87,0 -12.74,-4.121 -12.74,-14.687 v -4.883 h 15.08 v -8.242 h -15.08 v -62.11 h -10.15 v 62.11"
         style="fill:#231f20;fill-opacity:1;fill-rule:nonzero;stroke:none"
         id="path66" /><path
         d="m 1498.11,787.758 c 0,14.277 -5,23.301 -16.48,23.301 -10.16,0 -18.01,-7.598 -19.18,-23.301 z m -46.09,-7.11 c 0,27.461 13.51,38.399 30.66,38.399 17.89,0 26.02,-11.719 26.02,-35.156 v -3.75 h -46.37 c 0.27,-21.758 11.33,-26.016 24.73,-26.016 6.83,0 12.11,1.152 18.67,3.203 l 1.79,-8.242 c -5.27,-2.188 -13.24,-3.711 -22.14,-3.711 -20.47,0 -33.36,8.477 -33.36,35.273"
         style="fill:#231f20;fill-opacity:1;fill-rule:nonzero;stroke:none"
         id="path68" /><path
         d="m 1520.84,748.461 1.68,8.633 c 6.18,-1.817 12.74,-3.086 18.79,-3.086 10.32,0 16.88,3.984 16.88,10.937 0,15.703 -35.43,11.211 -35.43,34.395 0,12.871 10.7,19.707 23.83,19.707 5.54,0 12.65,-1.172 17.65,-3.359 l -2.3,-8.106 c -4.53,1.816 -10.31,2.949 -15.47,2.949 -9.65,0 -13.79,-4.492 -13.79,-10.293 0,-16.113 35.2,-11.347 35.2,-34.668 0,-15.058 -14.85,-20.195 -27.31,-20.195 -6.6,0 -14.57,1.406 -19.73,3.086"
         style="fill:#231f20;fill-opacity:1;fill-rule:nonzero;stroke:none"
         id="path70" /><path
         d="m 1578.58,748.461 1.68,8.633 c 6.17,-1.817 12.73,-3.086 18.79,-3.086 10.31,0 16.87,3.984 16.87,10.937 0,15.703 -35.39,11.211 -35.39,34.395 0,12.871 10.67,19.707 23.79,19.707 5.55,0 12.66,-1.172 17.66,-3.359 l -2.31,-8.106 c -4.49,1.816 -10.31,2.949 -15.47,2.949 -9.64,0 -13.78,-4.492 -13.78,-10.293 0,-16.113 35.19,-11.347 35.19,-34.668 0,-15.058 -14.8,-20.195 -27.3,-20.195 -6.61,0 -14.57,1.406 -19.73,3.086"
         style="fill:#231f20;fill-opacity:1;fill-rule:nonzero;stroke:none"
         id="path72" /><path
         d="m 1641.86,833.09 v 11.973 h 9.92 V 833.09 Z m -0.12,-15.84 h 10.32 v -70.352 h -10.32 v 70.352"
         style="fill:#231f20;fill-opacity:1;fill-rule:nonzero;stroke:none"
         id="path74" /><path
         d="m 1722.92,781.82 c 0,13.262 -3.86,28.868 -21.13,28.868 -17.26,0 -21.64,-15.469 -21.64,-28.868 0,-14.414 5.16,-28.086 21.64,-28.086 16.99,0 21.13,14.297 21.13,28.086 z m -53.08,-0.507 c 0,24.335 13.12,37.734 32.69,37.734 20,0 30.67,-13.399 30.67,-36.582 0,-25.371 -13.63,-37.09 -32.07,-37.09 -19.3,0 -31.29,12.871 -31.29,35.938"
         style="fill:#231f20;fill-opacity:1;fill-rule:nonzero;stroke:none"
         id="path76" /><path
         d="m 1750.89,817.25 h 10.2 v -7.988 c 7.34,5.41 14.14,9.785 25.12,9.785 19.96,0 21.25,-14.961 21.25,-26.797 v -45.352 h -9.93 v 43.418 c 0,12.129 -1.95,19.707 -13.9,19.707 -9.03,0 -16.25,-4.257 -22.54,-8.632 v -54.493 h -10.2 v 70.352"
         style="fill:#231f20;fill-opacity:1;fill-rule:nonzero;stroke:none"
         id="path78" /><path
         d="m 1866.87,761.859 v 18.282 L 1850,779.496 c -10.94,-0.371 -17,-5.273 -17,-13.516 0,-8.125 5.78,-11.972 13.52,-11.972 7.73,0 15.08,3.984 20.35,7.851 z m -43.67,3.711 c 0,17.539 15.47,21.133 26.91,21.407 l 16.76,0.234 v 9.023 c 0,11.211 -5.27,13.926 -16.37,13.926 -7.58,0 -13.24,-1.308 -19.06,-3.476 l -2.3,7.988 c 5.43,2.305 13.28,4.375 22.81,4.375 15.47,0 24.84,-5.664 24.84,-19.453 v -38.906 c 0,-5.274 4.26,-6.446 7.62,-6.446 l -0.39,-7.851 c -0.67,-0.118 -1.95,-0.254 -2.85,-0.254 -6.17,0 -12.62,2.578 -13.52,8.886 -3.48,-2.695 -11.33,-9.257 -23.44,-9.257 -12.77,0 -21.01,7.07 -21.01,19.804"
         style="fill:#231f20;fill-opacity:1;fill-rule:nonzero;stroke:none"
         id="path80" /><path
         d="m 1899.64,844.047 h 10.16 v -97.149 h -10.16 v 97.149"
         style="fill:#231f20;fill-opacity:1;fill-rule:nonzero;stroke:none"
         id="path82" /><path
         d="m 1973.71,787.758 c 0,14.277 -5,23.301 -16.49,23.301 -10.19,0 -18.05,-7.598 -19.18,-23.301 z m -46.1,-7.11 c 0,27.461 13.52,38.399 30.67,38.399 17.89,0 25.97,-11.719 25.97,-35.156 v -3.75 h -46.36 c 0.27,-21.758 11.36,-26.016 24.76,-26.016 6.8,0 12.11,1.152 18.67,3.203 l 1.8,-8.242 c -5.27,-2.188 -13.28,-3.711 -22.19,-3.711 -20.47,0 -33.32,8.477 -33.32,35.273"
         style="fill:#231f20;fill-opacity:1;fill-rule:nonzero;stroke:none"
         id="path84" /><path
         d="m 56.8359,584.902 v 46.368 c -1.9336,0.781 -6.8359,2.187 -13.0078,2.187 -18.4375,0 -23.9648,-14.414 -23.9648,-29.492 0,-18.692 8.4961,-26.934 19.1992,-26.934 7.9688,0 14.5508,5.02 17.7734,7.871 z M 9.57031,603.301 c 0,26.797 14.53129,38.519 34.88279,38.519 4.2578,0 7.7344,-0.507 12.3828,-1.8 v 26.8 H 66.9922 V 569.688 H 56.8359 v 6.699 c -5.039,-4.512 -10.1953,-7.989 -19.0625,-7.989 -11.0937,0 -28.20309,5.801 -28.20309,34.903"
         style="fill:#231f20;fill-opacity:1;fill-rule:nonzero;stroke:none"
         id="path86" /><path
         d="m 130.938,610.527 c 0,14.297 -5.02,23.321 -16.485,23.321 -10.176,0 -18.0467,-7.618 -19.1796,-23.321 z m -46.1138,-7.089 c 0,27.441 13.5352,38.382 30.6448,38.382 17.929,0 26.035,-11.722 26.035,-35.16 v -3.73 H 95.1172 c 0.2734,-21.778 11.3478,-26.035 24.7458,-26.035 6.817,0 12.09,1.171 18.692,3.222 l 1.797,-8.242 c -5.274,-2.187 -13.282,-3.73 -22.168,-3.73 -20.4887,0 -33.3598,8.496 -33.3598,35.293"
         style="fill:#231f20;fill-opacity:1;fill-rule:nonzero;stroke:none"
         id="path88" /><path
         d="m 159.063,666.82 h 10.156 v -97.132 h -10.156 v 97.132"
         style="fill:#231f20;fill-opacity:1;fill-rule:nonzero;stroke:none"
         id="path90" /><path
         d="m 190.898,666.82 h 10.157 v -97.132 h -10.157 v 97.132"
         style="fill:#231f20;fill-opacity:1;fill-rule:nonzero;stroke:none"
         id="path92" /><path
         d="m 261.117,584.629 v 18.301 l -16.875,-0.645 c -10.957,-0.39 -17.012,-5.273 -17.012,-13.515 0,-8.125 5.821,-11.993 13.536,-11.993 7.714,0 15.058,3.985 20.351,7.852 z m -43.672,3.75 c 0,17.5 15.45,21.113 26.934,21.367 l 16.738,0.274 v 9.023 c 0,11.191 -5.293,13.906 -16.347,13.906 -7.618,0 -13.282,-1.289 -19.082,-3.476 l -2.325,7.968 c 5.43,2.325 13.282,4.379 22.813,4.379 15.469,0 24.863,-5.668 24.863,-19.457 v -38.906 c 0,-5.273 4.238,-6.426 7.598,-6.426 l -0.391,-7.871 c -0.644,-0.117 -1.914,-0.234 -2.832,-0.234 -6.191,0 -12.637,2.578 -13.516,8.867 -3.496,-2.695 -11.347,-9.258 -23.457,-9.258 -12.753,0 -20.996,7.07 -20.996,19.844"
         style="fill:#231f20;fill-opacity:1;fill-rule:nonzero;stroke:none"
         id="path94" /><path
         d="m 322.992,574.453 3.34,8.77 c 6.719,-3.36 13.535,-5.821 22.168,-5.821 10.059,0 21.387,3.887 21.387,15.606 0,22.793 -44.688,16.621 -44.688,46.504 0,14.691 12.617,22.543 27.168,22.543 10.293,0 16.875,-2.071 22.403,-5.039 l -3.204,-8.243 c -5.937,2.715 -11.718,4.395 -18.945,4.395 -9.414,0 -17.266,-4.121 -17.266,-13.402 0,-20.489 45.215,-17.129 45.215,-45.996 0,-17.383 -14.668,-25.625 -32.207,-25.625 -11.328,0 -20.078,3.085 -25.371,6.308"
         style="fill:#231f20;fill-opacity:1;fill-rule:nonzero;stroke:none"
         id="path96" /><path
         d="m 387.699,640.02 h 11.074 l 14.688,-48.301 4.648,-14.942 4.903,15.196 16.738,48.047 h 10.43 l -25.371,-70.332 h -14.063 l -23.047,70.332"
         style="fill:#231f20;fill-opacity:1;fill-rule:nonzero;stroke:none"
         id="path98" /><path
         d="m 462.582,655.883 v 11.972 h 9.922 v -11.972 z m -0.137,-15.863 h 10.293 v -70.332 h -10.293 v 70.332"
         style="fill:#231f20;fill-opacity:1;fill-rule:nonzero;stroke:none"
         id="path100" /><path
         d="m 488.48,578.457 41.602,52.676 H 491.84 v 8.887 h 49.844 v -8.243 l -41.856,-53.203 h 42.363 v -8.886 H 488.48 v 8.769"
         style="fill:#231f20;fill-opacity:1;fill-rule:nonzero;stroke:none"
         id="path102" /><path
         d="m 552.934,578.457 41.601,52.676 h -38.242 v 8.887 h 49.844 v -8.243 l -41.875,-53.203 h 42.383 v -8.886 h -53.711 v 8.769"
         style="fill:#231f20;fill-opacity:1;fill-rule:nonzero;stroke:none"
         id="path104" /><path
         d="m 665.668,610.527 c 0,14.297 -5,23.321 -16.484,23.321 -10.157,0 -18.028,-7.618 -19.18,-23.321 z m -46.113,-7.089 c 0,27.441 13.535,38.382 30.664,38.382 17.91,0 26.015,-11.722 26.015,-35.16 v -3.73 h -46.367 c 0.254,-21.778 11.328,-26.035 24.727,-26.035 6.836,0 12.109,1.171 18.691,3.222 l 1.797,-8.242 c -5.273,-2.187 -13.281,-3.73 -22.148,-3.73 -20.489,0 -33.379,8.496 -33.379,35.293"
         style="fill:#231f20;fill-opacity:1;fill-rule:nonzero;stroke:none"
         id="path106" /><path
         d="m 693.793,640.02 h 10.176 v -9.415 c 3.222,5.293 10.176,10.961 20.097,10.961 4.122,0 6.954,-0.761 8.243,-1.152 l -1.68,-8.637 c -2.188,0.508 -4.258,0.899 -8.359,0.899 -8.516,0 -14.961,-6.055 -18.301,-11.211 v -51.777 h -10.176 v 70.332"
         style="fill:#231f20;fill-opacity:1;fill-rule:nonzero;stroke:none"
         id="path108" /><path
         d="m 782.055,584.629 v 18.301 l -16.875,-0.645 c -10.957,-0.39 -16.992,-5.273 -16.992,-13.515 0,-8.125 5.8,-11.993 13.515,-11.993 7.735,0 15.078,3.985 20.352,7.852 z m -43.653,3.75 c 0,17.5 15.45,21.113 26.914,21.367 l 16.739,0.274 v 9.023 c 0,11.191 -5.274,13.906 -16.348,13.906 -7.617,0 -13.281,-1.289 -19.062,-3.476 l -2.344,7.968 c 5.429,2.325 13.281,4.379 22.812,4.379 15.469,0 24.864,-5.668 24.864,-19.457 v -38.906 c 0,-5.273 4.257,-6.426 7.597,-6.426 l -0.39,-7.871 c -0.625,-0.117 -1.914,-0.234 -2.813,-0.234 -6.191,0 -12.637,2.578 -13.555,8.867 -3.476,-2.695 -11.328,-9.258 -23.437,-9.258 -12.734,0 -20.977,7.07 -20.977,19.844"
         style="fill:#231f20;fill-opacity:1;fill-rule:nonzero;stroke:none"
         id="path110" /><path
         d="m 848.59,655.883 v 11.972 h 9.922 v -11.972 z m -0.137,-15.863 h 10.313 v -70.332 h -10.313 v 70.332"
         style="fill:#231f20;fill-opacity:1;fill-rule:nonzero;stroke:none"
         id="path112" /><path
         d="m 883.141,589.277 v 42.11 h -10.313 v 8.633 h 10.313 v 14.437 h 9.922 V 640.02 h 22.011 v -8.633 H 893.18 v -41.719 c 0,-9.922 4.492,-12.637 12.617,-12.637 3.867,0 8.906,1.035 11.855,2.051 l 1.817,-8.359 c -3.633,-1.289 -10.196,-2.578 -14.961,-2.578 -13.125,0 -21.367,4.511 -21.367,21.132"
         style="fill:#231f20;fill-opacity:1;fill-rule:nonzero;stroke:none"
         id="path114" /><path
         d="m 970.23,584.629 v 18.301 l -16.875,-0.645 c -10.957,-0.39 -17.011,-5.273 -17.011,-13.515 0,-8.125 5.82,-11.993 13.535,-11.993 7.715,0 15.059,3.985 20.351,7.852 z m -43.671,3.75 c 0,17.5 15.449,21.113 26.933,21.367 l 16.738,0.274 v 9.023 c 0,11.191 -5.292,13.906 -16.347,13.906 -7.617,0 -13.281,-1.289 -19.082,-3.476 l -2.324,7.968 c 5.429,2.325 13.281,4.379 22.812,4.379 15.469,0 24.863,-5.668 24.863,-19.457 v -38.906 c 0,-5.273 4.246,-6.426 7.606,-6.426 l -0.391,-7.871 c -0.644,-0.117 -1.914,-0.234 -2.832,-0.234 -6.199,0 -12.644,2.578 -13.523,8.867 -3.496,-2.695 -11.348,-9.258 -23.457,-9.258 -12.754,0 -20.996,7.07 -20.996,19.844"
         style="fill:#231f20;fill-opacity:1;fill-rule:nonzero;stroke:none"
         id="path116" /><path
         d="m 1002.99,666.82 h 10.18 v -97.132 h -10.18 v 97.132"
         style="fill:#231f20;fill-opacity:1;fill-rule:nonzero;stroke:none"
         id="path118" /><path
         d="m 1034.95,655.883 v 11.972 h 9.92 v -11.972 z m -0.12,-15.863 h 10.31 v -70.332 h -10.31 v 70.332"
         style="fill:#231f20;fill-opacity:1;fill-rule:nonzero;stroke:none"
         id="path120" /><path
         d="m 1105.3,584.629 v 18.301 l -16.88,-0.645 c -10.93,-0.39 -16.99,-5.273 -16.99,-13.515 0,-8.125 5.78,-11.993 13.52,-11.993 7.73,0 15.07,3.985 20.35,7.852 z m -43.67,3.75 c 0,17.5 15.46,21.113 26.91,21.367 l 16.76,0.274 v 9.023 c 0,11.191 -5.28,13.906 -16.37,13.906 -7.58,0 -13.28,-1.289 -19.06,-3.476 l -2.31,7.968 c 5.39,2.325 13.25,4.379 22.78,4.379 15.47,0 24.88,-5.668 24.88,-19.457 v -38.906 c 0,-5.273 4.22,-6.426 7.58,-6.426 l -0.39,-7.871 c -0.63,-0.117 -1.92,-0.234 -2.82,-0.234 -6.17,0 -12.61,2.578 -13.51,8.867 -3.48,-2.695 -11.37,-9.258 -23.48,-9.258 -12.73,0 -20.97,7.07 -20.97,19.844"
         style="fill:#231f20;fill-opacity:1;fill-rule:nonzero;stroke:none"
         id="path122" /><path
         d="m 1138.07,640.02 h 10.16 v -7.969 c 7.34,5.39 14.18,9.769 25.11,9.769 19.97,0 21.25,-14.945 21.25,-26.8 v -45.332 h -9.92 v 43.417 c 0,12.11 -1.91,19.708 -13.9,19.708 -9.03,0 -16.21,-4.258 -22.54,-8.633 v -54.492 h -10.16 v 70.332"
         style="fill:#231f20;fill-opacity:1;fill-rule:nonzero;stroke:none"
         id="path124" /><path
         d="m 1254.01,584.629 v 18.301 l -16.84,-0.645 c -10.97,-0.39 -17.03,-5.273 -17.03,-13.515 0,-8.125 5.78,-11.993 13.52,-11.993 7.73,0 15.08,3.985 20.35,7.852 z m -43.67,3.75 c 0,17.5 15.47,21.113 26.95,21.367 l 16.72,0.274 v 9.023 c 0,11.191 -5.27,13.906 -16.37,13.906 -7.58,0 -13.24,-1.289 -19.06,-3.476 l -2.31,7.968 c 5.43,2.325 13.29,4.379 22.82,4.379 15.47,0 24.84,-5.668 24.84,-19.457 v -38.906 c 0,-5.273 4.26,-6.426 7.62,-6.426 l -0.39,-7.871 c -0.67,-0.117 -1.96,-0.234 -2.85,-0.234 -6.18,0 -12.62,2.578 -13.52,8.867 -3.48,-2.695 -11.33,-9.258 -23.44,-9.258 -12.77,0 -21.01,7.07 -21.01,19.844"
         style="fill:#231f20;fill-opacity:1;fill-rule:nonzero;stroke:none"
         id="path126" /></g></g></svg>
