<?xml version="1.0" encoding="UTF-8" standalone="no"?>
<!-- Created with Inkscape (http://www.inkscape.org/) -->

<svg
   version="1.1"
   id="svg2"
   xml:space="preserve"
   width="132.28"
   height="62.653332"
   viewBox="0 0 132.28 62.653332"
   sodipodi:docname="I_ProSenectute_CMYK_35mm_MitClaim.eps"
   xmlns:inkscape="http://www.inkscape.org/namespaces/inkscape"
   xmlns:sodipodi="http://sodipodi.sourceforge.net/DTD/sodipodi-0.dtd"
   xmlns="http://www.w3.org/2000/svg"
   xmlns:svg="http://www.w3.org/2000/svg"><defs
     id="defs6"><clipPath
       clipPathUnits="userSpaceOnUse"
       id="clipPath18"><path
         d="M 0,0 H 992 V 470 H 0 Z"
         id="path16" /></clipPath><clipPath
       clipPathUnits="userSpaceOnUse"
       id="clipPath24"><path
         d="m 940.461,176.563 v 24.902 h 45.934 v 29.687 h -45.934 v 22.016 h 51.211 l -4.824,30.664 H 905.984 V 145.93 h 81.313 l 4.844,30.633 z m -79.492,76.605 h 33.496 v 30.664 H 792.938 v -30.664 h 33.554 V 145.93 h 34.477 z M 782.41,205.305 v 78.527 h -33.515 v -81.41 c 0,-19.141 -8.614,-27.762 -23.922,-27.762 -15.332,0 -23.95,7.664 -23.95,27.762 v 81.41 h -34.492 v -78.527 c 0,-40.215 20.117,-60.723 58.442,-60.723 38.297,0 57.437,20.508 57.437,60.723 M 671.316,401.48 c 0,48.852 -28.711,68.375 -62.246,68.375 -33.496,0 -64.121,-19.523 -64.121,-68.375 0,-48.847 28.711,-72.21 62.231,-72.21 33.496,0 64.136,23.363 64.136,72.21 m -34.468,0 c 0,-30.656 -14.36,-42.128 -28.711,-42.128 -14.36,0 -28.75,11.472 -28.75,42.128 0,30.645 14.39,38.309 28.75,38.309 14.351,0 28.711,-7.664 28.711,-38.309 m -131.02,-9.566 c 15.918,6.895 27.617,19.152 27.617,37.531 0,29.7 -23.007,40.41 -48.875,40.41 -16.257,0 -28.711,-1.148 -44.043,-2.671 V 330.609 h 33.52 v 52.864 c 6.699,-2.086 11.484,-6.504 14.746,-14.551 l 15.492,-38.313 h 36.801 l -18.188,41.192 c -3.828,8.621 -9.585,15.129 -17.07,20.113 m -5.93,35.231 c 0,-10.528 -8.613,-16.079 -21.066,-16.079 h -4.785 v 29.872 c 3.273,0.199 6.699,0.39 10.523,0.39 8.618,0 15.328,-3.652 15.328,-14.183 M 349.535,145.93 h 81.36 l 4.847,30.633 h -51.734 v 24.902 h 45.972 v 29.687 h -45.972 v 22.016 h 51.246 l -4.832,30.664 h -80.887 z m 75.684,275.668 c 0,35.433 -24.903,48.257 -52.684,48.257 -17.238,0 -32.57,-1.328 -43.094,-2.296 v -136.95 h 34.477 v 43.098 h 7.664 c 28.734,0 53.637,12.477 53.637,47.891 m -33.543,0 c 0,-14.356 -8.617,-20.118 -19.141,-20.118 -3.055,0 -5.957,0 -8.617,0.2 v 39.062 c 3.074,0.196 6.125,0.395 9.566,0.395 10.524,0 18.192,-5.18 18.192,-19.539 M 287.289,145.93 h 41.203 v 137.902 h -34.488 v -79.875 l -40.219,79.875 H 213.574 V 145.93 h 34.473 v 78.515 z m -178.117,0 h 81.34 l 4.859,30.633 h -51.719 v 24.902 h 45.973 v 29.687 h -45.973 v 22.016 h 51.231 l -4.82,30.664 H 109.172 Z M 34.4727,246.48 c 0,5.739 4.7851,8.985 16.289,8.985 11.4883,0 23.9414,-3.051 32.5586,-5.168 l 4.7852,30.266 C 77.582,282.855 65.1172,285.152 49.8086,285.152 18.207,285.152 0,269.453 0,246.48 0,225.781 14.3789,214.484 35.4297,203.223 l 8.6367,-4.637 c 12.4414,-6.691 15.3125,-10.129 15.3125,-15.305 0,-5.742 -5.7422,-9.011 -15.3125,-9.011 -13.4219,0 -26.8164,2.683 -37.35156,4.96 L 0.953125,149.199 c 9.570275,-1.953 24.906275,-4.617 44.070275,-4.617 27.1875,0 48.8282,15.332 48.8282,38.699 0,21.047 -13.9883,32.149 -35.4336,43.649 l -8.6094,4.59 c -10.3398,5.562 -15.3359,9.761 -15.3359,14.96 M 448.191,215.82 c 0,-48.828 25.856,-71.238 64.18,-71.238 14.359,0 26.817,2.664 35.434,4.981 l -4.809,29.667 c -6.695,-1.691 -18.199,-4.375 -29.683,-4.375 -18.2,0 -30.645,11.278 -30.645,40.965 0,29.692 13.402,39.262 29.703,39.262 13.399,0 22.973,-2.668 28.715,-4.402 l 5.762,29.125 c -8.618,2.492 -19.16,5.347 -34.477,5.347 -38.324,0 -64.18,-22.386 -64.18,-69.332 m 207.817,68.012 H 554.52 v -30.664 h 33.5 V 145.93 h 34.468 v 107.238 h 33.52 z"
         id="path22" /></clipPath><linearGradient
       x1="0"
       y1="0"
       x2="1"
       y2="0"
       gradientUnits="userSpaceOnUse"
       gradientTransform="matrix(303.73,-526.077,-526.077,-303.73,344.082,476.001)"
       spreadMethod="pad"
       id="linearGradient30"><stop
         style="stop-opacity:1;stop-color:#a1d61d"
         offset="0"
         id="stop26" /><stop
         style="stop-opacity:1;stop-color:#45bb3a"
         offset="1"
         id="stop28" /></linearGradient></defs><sodipodi:namedview
     id="namedview4"
     pagecolor="#ffffff"
     bordercolor="#666666"
     borderopacity="1.0"
     inkscape:pageshadow="2"
     inkscape:pageopacity="0.0"
     inkscape:pagecheckerboard="0" /><g
     id="g8"
     inkscape:groupmode="layer"
     inkscape:label="ink_ext_XXXXXX"
     transform="matrix(1.3333333,0,0,-1.3333333,0,62.653333)"><g
       id="g10"
       transform="scale(0.1)"><g
         id="g12"><g
           id="g14"
           clip-path="url(#clipPath18)"><g
             id="g20"
             clip-path="url(#clipPath24)"><path
               d="m 32,144 v 1 H 21 v 1 h -8 v 1 H 7 v 1 H 1 v 1 H 0 v 1 h 1 v 5 h 1 v 5 h 1 v 6 h 1 v 5 h 1 v 5 h 1 v 4 h 2 v -1 h 5 v -1 h 5 v -1 h 6 v -1 h 8 v -1 h 18 v 1 h 3 v 1 h 2 v 1 h 1 v 1 h 1 v 1 h 1 v 2 h 1 v 3 h -1 v 3 h -1 v 1 h -1 v 1 h -1 v 1 h -1 v 1 h -1 v 1 h -2 v 1 h -1 v 1 h -2 v 1 h -2 v 1 h -1 v 1 h -2 v 1 h -2 v 1 h -2 v 1 h -2 v 1 h -2 v 1 h -2 v 1 h -1 v 1 h -2 v 1 h -2 v 1 h -1 v 1 h -2 v 1 h -2 v 1 h -1 v 1 h -2 v 1 h -1 v 1 h -1 v 1 h -2 v 1 h -1 v 1 h -1 v 1 h -1 v 1 h -1 v 1 h -1 v 1 h -1 v 1 H 9 v 1 H 8 v 1 H 7 v 1 H 6 v 2 H 5 v 1 H 4 v 2 H 3 v 2 H 2 v 3 H 1 v 3 H 0 v 19 h 1 v 3 h 1 v 3 h 1 v 2 h 1 v 1 h 1 v 2 h 1 v 2 h 1 v 1 h 1 v 1 h 1 v 1 h 1 v 1 h 1 v 1 h 1 v 1 h 1 v 1 h 2 v 1 h 2 v 1 h 1 v 1 h 2 v 1 h 2 v 1 h 3 v 1 h 2 v 1 h 4 v 1 h 5 v 1 h 9 v 1 h 12 v -1 h 11 v -1 h 7 v -1 h 6 v -1 h 6 v -1 h 2 v -2 h -1 v -6 h -1 v -6 h -1 v -7 h -1 v -6 h -1 v -4 h -4 v 1 h -4 v 1 h -5 v 1 h -6 v 1 h -7 v 1 H 45 v -1 h -4 v -1 h -2 v -1 h -1 v -1 h -1 v -1 h -1 v -1 h -1 v -5 h 1 v -2 h 1 v -1 h 1 v -1 h 1 v -1 h 1 v -1 h 2 v -1 h 1 v -1 h 1 v -1 h 2 v -1 h 2 v -1 h 1 v -1 h 2 v -1 h 2 v -1 h 2 v -1 h 2 v -1 h 2 v -1 h 2 v -1 h 1 v -1 h 2 v -1 h 2 v -1 h 2 v -1 h 1 v -1 h 2 v -1 h 1 v -1 h 2 v -1 h 1 v -1 h 1 v -1 h 2 v -1 h 1 v -1 h 1 v -1 h 1 v -1 h 1 v -1 h 1 v -1 h 1 v -1 h 1 v -1 h 1 v -1 h 1 v -2 h 1 v -1 h 1 v -2 h 1 v -2 h 1 v -1 h 1 v -4 h 1 v -3 h 1 v -17 h -1 v -3 h -1 v -3 h -1 v -2 h -1 v -2 h -1 v -1 h -1 v -2 h -1 v -1 h -1 v -1 h -1 v -1 h -1 v -1 h -1 v -1 h -1 v -1 h -1 v -1 h -1 v -1 h -2 v -1 h -1 v -1 h -2 v -1 h -2 v -1 h -2 v -1 h -2 v -1 h -3 v -1 h -3 v -1 h -4 v -1 h -7 v -1 z m 472,0 v 1 h -7 v 1 h -4 v 1 h -4 v 1 h -4 v 1 h -2 v 1 h -2 v 1 h -2 v 1 h -2 v 1 h -2 v 1 h -1 v 1 h -1 v 1 h -2 v 1 h -1 v 1 h -1 v 1 h -1 v 1 h -2 v 1 h -1 v 2 h -1 v 1 h -1 v 1 h -1 v 2 h -1 v 1 h -1 v 1 h -1 v 2 h -1 v 1 h -1 v 2 h -1 v 3 h -1 v 2 h -1 v 2 h -1 v 2 h -1 v 4 h -1 v 4 h -1 v 5 h -1 v 6 h -1 v 27 h 1 v 6 h 1 v 4 h 1 v 5 h 1 v 3 h 1 v 2 h 1 v 3 h 1 v 2 h 1 v 2 h 1 v 2 h 1 v 2 h 1 v 1 h 1 v 1 h 1 v 2 h 1 v 1 h 1 v 1 h 1 v 1 h 1 v 2 h 2 v 1 h 1 v 1 h 1 v 1 h 1 v 1 h 2 v 1 h 1 v 1 h 1 v 1 h 2 v 1 h 2 v 1 h 2 v 1 h 2 v 1 h 2 v 1 h 2 v 1 h 4 v 1 h 4 v 1 h 4 v 1 h 9 v 1 h 11 v -1 h 10 v -1 h 6 v -1 h 5 v -1 h 4 v -1 h 4 v -6 h -1 v -5 h -1 v -5 h -1 v -5 h -1 v -5 h -1 v -5 h -2 v 1 h -4 v 1 h -5 v 1 h -5 v 1 h -11 v 1 h -4 v -1 h -6 v -1 h -4 v -1 h -2 v -1 h -2 v -1 h -1 v -1 h -1 v -1 h -1 v -1 h -2 v -2 h -1 v -1 h -1 v -1 h -1 v -2 h -1 v -2 h -1 v -3 h -1 v -2 h -1 v -5 h -1 v -7 h -1 v -13 h 1 v -7 h 1 v -5 h 1 v -3 h 1 v -2 h 1 v -2 h 1 v -2 h 1 v -1 h 1 v -2 h 1 v -1 h 1 v -1 h 1 v -1 h 1 v -1 h 1 v -1 h 2 v -1 h 2 v -1 h 2 v -1 h 3 v -1 h 6 v -1 h 6 v 1 h 9 v 1 h 6 v 1 h 5 v 1 h 5 v 1 h 2 v -6 h 1 v -7 h 1 v -6 h 1 v -6 h 1 v -6 h -2 v -1 h -4 v -1 h -5 v -1 h -6 v -1 h -8 v -1 z m 213,0 v 1 h -8 v 1 h -4 v 1 h -4 v 1 h -3 v 1 h -2 v 1 h -2 v 1 h -2 v 1 h -2 v 1 h -2 v 1 h -1 v 1 h -1 v 1 h -2 v 1 h -1 v 1 h -1 v 1 h -1 v 1 h -1 v 1 h -1 v 2 h -1 v 1 h -1 v 1 h -1 v 1 h -1 v 2 h -1 v 2 h -1 v 2 h -1 v 2 h -1 v 3 h -1 v 3 h -1 v 4 h -1 v 4 h -1 v 8 h -1 v 88 h 36 v -90 h 1 v -5 h 1 v -1 h 1 v -2 h 1 v -2 h 1 v -2 h 1 v -1 h 1 v -1 h 2 v -1 h 1 v -1 h 2 v -1 h 2 v -1 h 5 v -1 h 8 v 1 h 4 v 1 h 3 v 1 h 1 v 1 h 2 v 1 h 1 v 1 h 2 v 1 h 1 v 2 h 1 v 2 h 1 v 2 h 1 v 2 h 1 v 5 h 1 v 89 h 35 v -88 h -1 v -8 h -1 v -4 h -1 v -5 h -1 v -3 h -1 v -2 h -1 v -2 h -1 v -3 h -1 v -2 h -1 v -1 h -1 v -1 h -1 v -2 h -1 v -1 h -1 v -1 h -1 v -2 h -1 v -1 h -2 v -1 h -1 v -1 h -1 v -1 h -1 v -1 h -2 v -1 h -1 v -1 h -2 v -1 h -2 v -1 h -2 v -1 h -2 v -1 h -3 v -1 h -4 v -1 h -4 v -1 h -8 v -1 z m -608,1 v 139 h 82 v -6 h 1 v -6 h 1 v -6 h 1 v -7 h 1 v -6 h -51 v -21 h 46 v -31 h -46 v -24 h 52 v -3 h -1 v -7 h -1 v -6 h -1 v -6 h -1 v -6 h -1 v -4 z m 104,0 v 139 h 42 v -2 h 1 v -2 h 1 v -2 h 1 v -2 h 1 v -2 h 1 v -2 h 1 v -2 h 1 v -2 h 1 v -2 h 1 v -2 h 1 v -2 h 1 v -2 h 1 v -2 h 1 v -2 h 1 v -2 h 1 v -2 h 1 v -2 h 1 v -2 h 1 v -2 h 1 v -2 h 1 v -2 h 1 v -2 h 1 v -2 h 1 v -2 h 1 v -2 h 1 v -2 h 1 v -2 h 1 v -2 h 1 v -2 h 1 v -2 h 1 v -2 h 1 v -2 h 1 v -2 h 1 v -2 h 1 v -2 h 1 v -2 h 1 v -2 h 1 v -2 h 1 v -2 h 1 v 78 h 35 V 145 h -42 v 1 h -1 v 2 h -1 v 2 h -1 v 2 h -1 v 2 h -1 v 2 h -1 v 2 h -1 v 2 h -1 v 2 h -1 v 2 h -1 v 2 h -1 v 2 h -1 v 2 h -1 v 2 h -1 v 2 h -1 v 2 h -1 v 2 h -1 v 2 h -1 v 2 h -1 v 2 h -1 v 2 h -1 v 2 h -1 v 2 h -1 v 2 h -1 v 2 h -1 v 2 h -1 v 2 h -1 v 2 h -1 v 2 h -1 v 2 h -1 v 2 h -1 v 2 h -1 v 2 h -1 v 2 h -1 v 2 h -1 v 2 h -1 v 2 h -1 v 2 h -1 v -75 z m 136,0 v 139 h 82 v -3 h 1 v -7 h 1 v -6 h 1 v -6 h 1 v -7 h 1 v -2 h -51 v -21 h 45 v -31 h -45 v -24 h 51 v -6 h -1 v -6 h -1 v -6 h -1 v -7 h -1 v -6 h -1 v -1 z m 239,0 v 108 h -34 v 31 H 657 V 253 H 623 V 145 Z m 238,0 v 108 h -34 v 31 H 895 V 253 H 861 V 145 Z m 79,0 v 139 h 82 v -1 h 1 v -6 h 1 v -6 h 1 v -7 h 1 v -6 h 1 v -5 h -51 v -21 h 46 v -31 h -46 v -24 h 51 v -8 h -1 v -6 h -1 v -7 h -1 v -6 h -1 v -5 z M 597,329 v 1 h -5 v 1 h -3 v 1 h -4 v 1 h -3 v 1 h -2 v 1 h -2 v 1 h -1 v 1 h -2 v 1 h -2 v 1 h -2 v 1 h -1 v 1 h -1 v 1 h -1 v 1 h -1 v 1 h -2 v 1 h -1 v 1 h -1 v 1 h -1 v 2 h -1 v 1 h -1 v 1 h -1 v 1 h -1 v 2 h -1 v 1 h -1 v 1 h -1 v 2 h -1 v 2 h -1 v 3 h -1 v 2 h -1 v 2 h -1 v 2 h -1 v 4 h -1 v 4 h -1 v 4 h -1 v 5 h -1 v 10 h -1 v 11 h 1 v 9 h 1 v 5 h 1 v 4 h 1 v 4 h 1 v 3 h 1 v 3 h 1 v 2 h 1 v 2 h 1 v 1 h 1 v 2 h 1 v 2 h 1 v 2 h 1 v 1 h 1 v 1 h 1 v 1 h 1 v 1 h 1 v 2 h 1 v 1 h 1 v 1 h 1 v 1 h 1 v 1 h 2 v 1 h 1 v 1 h 1 v 1 h 2 v 1 h 1 v 1 h 1 v 1 h 3 v 1 h 2 v 1 h 2 v 1 h 2 v 1 h 2 v 1 h 4 v 1 h 4 v 1 h 5 v 1 h 24 v -1 h 5 v -1 h 4 v -1 h 4 v -1 h 2 v -1 h 2 v -1 h 2 v -1 h 2 v -1 h 2 v -1 h 1 v -1 h 2 v -1 h 1 v -1 h 1 v -1 h 2 v -1 h 1 v -1 h 1 v -1 h 1 v -1 h 1 v -1 h 1 v -1 h 1 v -2 h 1 v -1 h 1 v -1 h 1 v -1 h 1 v -2 h 1 v -2 h 1 v -2 h 1 v -2 h 1 v -2 h 1 v -2 h 1 v -3 h 1 v -4 h 1 v -4 h 1 v -4 h 1 v -10 h 1 v -15 h -1 v -10 h -1 v -4 h -1 v -3 h -1 v -4 h -1 v -4 h -1 v -2 h -1 v -2 h -1 v -2 h -1 v -2 h -1 v -2 h -1 v -2 h -1 v -1 h -1 v -2 h -1 v -1 h -1 v -1 h -1 v -1 h -1 v -2 h -1 v -1 h -1 v -1 h -1 v -1 h -1 v -1 h -1 v -1 h -1 v -1 h -2 v -1 h -1 v -1 h -1 v -1 h -1 v -1 h -2 v -1 h -2 v -1 h -2 v -1 h -2 v -1 h -2 v -1 h -2 v -1 h -3 v -1 h -3 v -1 h -4 v -1 h -5 v -1 z m -268,1 v 138 h 5 v 1 h 13 v 1 h 37 v -1 h 5 v -1 h 5 v -1 h 2 v -1 h 3 v -1 h 3 v -1 h 1 v -1 h 2 v -1 h 2 v -1 h 1 v -1 h 2 v -1 h 1 v -1 h 1 v -1 h 1 v -1 h 1 v -1 h 1 v -1 h 1 v -1 h 1 v -2 h 1 v -2 h 1 v -1 h 1 v -2 h 1 v -2 h 1 v -3 h 1 v -3 h 1 v -3 h 1 v -8 h 1 v -11 h -1 v -7 h -1 v -4 h -1 v -3 h -1 v -3 h -1 v -2 h -1 v -1 h -1 v -2 h -1 v -2 h -1 v -1 h -1 v -1 h -1 v -1 h -1 v -1 h -1 v -1 h -1 v -1 h -1 v -1 h -1 v -1 h -1 v -1 h -2 v -1 h -1 v -1 h -2 v -1 h -2 v -1 h -2 v -1 h -2 v -1 h -3 v -1 h -4 v -1 h -5 v -1 h -7 v -1 h -15 v -43 z m 111,0 v 138 h 9 v 1 h 12 v 1 h 35 v -1 h 6 v -1 h 4 v -1 h 3 v -1 h 3 v -1 h 1 v -1 h 2 v -1 h 2 v -1 h 2 v -1 h 1 v -1 h 1 v -1 h 1 v -1 h 1 v -1 h 2 v -2 h 1 v -1 h 1 v -2 h 1 v -1 h 1 v -2 h 1 v -2 h 1 v -3 h 1 v -3 h 1 v -5 h 1 v -12 h -1 v -5 h -1 v -3 h -1 v -2 h -1 v -2 h -1 v -2 h -1 v -2 h -1 v -1 h -1 v -2 h -1 v -1 h -1 v -1 h -1 v -1 h -2 v -1 h -1 v -1 h -1 v -1 h -1 v -1 h -1 v -1 h -1 v -1 h -2 v -1 h -2 v -1 h -1 v -1 h -2 v -1 h -1 v -1 h 1 v -1 h 1 v -1 h 1 v -1 h 1 v -1 h 1 v -1 h 1 v -1 h 1 v -1 h 1 v -1 h 1 v -1 h 1 v -2 h 1 v -1 h 1 v -2 h 1 v -1 h 1 v -2 h 1 v -2 h 1 v -2 h 1 v -2 h 1 v -3 h 1 v -2 h 1 v -2 h 1 v -3 h 1 v -2 h 1 v -2 h 1 v -2 h 1 v -3 h 1 v -2 h 1 v -2 h 1 v -2 h 1 v -3 h 1 v -2 h 1 v -2 h 1 v -2 h 1 v -3 h 1 v -1 h -38 v 1 h -1 v 2 h -1 v 3 h -1 v 2 h -1 v 3 h -1 v 2 h -1 v 3 h -1 v 2 h -1 v 3 h -1 v 2 h -1 v 3 h -1 v 2 h -1 v 2 h -1 v 3 h -1 v 2 h -1 v 3 h -1 v 2 h -1 v 2 h -1 v 2 h -1 v 1 h -1 v 1 h -1 v 2 h -2 v 1 h -1 v 1 h -1 v 1 h -2 v 1 h -2 v -52 z m 163,31 v -1 h 10 v 1 h 3 v 1 h 3 v 1 h 1 v 1 h 2 v 1 h 1 v 1 h 1 v 1 h 1 v 1 h 1 v 1 h 1 v 1 h 1 v 1 h 1 v 2 h 1 v 1 h 1 v 2 h 1 v 3 h 1 v 2 h 1 v 4 h 1 v 5 h 1 v 22 h -1 v 5 h -1 v 4 h -1 v 2 h -1 v 3 h -1 v 1 h -1 v 2 h -1 v 1 h -1 v 1 h -1 v 1 h -1 v 1 h -1 v 1 h -1 v 1 h -1 v 1 h -3 v 1 h -2 v 1 h -3 v 1 h -13 v -1 h -4 v -1 h -2 v -1 h -2 v -1 h -2 v -1 h -1 v -1 h -1 v -1 h -1 v -1 h -1 v -1 h -1 v -2 h -1 v -1 h -1 v -2 h -1 v -2 h -1 v -3 h -1 v -4 h -1 v -5 h -1 v -19 h 1 v -5 h 1 v -5 h 1 v -2 h 1 v -3 h 1 v -2 h 1 v -2 h 1 v -1 h 1 v -2 h 1 v -1 h 1 v -1 h 1 v -1 h 1 v -1 h 1 v -1 h 1 v -1 h 2 v -1 h 1 v -1 h 3 v -1 z m -239,42 v -1 h 12 v 1 h 4 v 1 h 2 v 1 h 2 v 1 h 1 v 1 h 1 v 1 h 1 v 2 h 1 v 1 h 1 v 2 h 1 v 4 h 1 v 10 h -1 v 4 h -1 v 1 h -1 v 2 h -1 v 1 h -1 v 2 h -2 v 1 h -2 v 1 h -2 v 1 h -4 v 1 h -7 v -1 h -5 z m 111,10 v -1 h 11 v 1 h 3 v 1 h 2 v 1 h 2 v 1 h 1 v 1 h 1 v 1 h 1 v 1 h 1 v 1 h 1 v 3 h 1 v 9 h -1 v 3 h -1 v 1 h -1 v 1 h -1 v 1 h -1 v 1 h -2 v 1 h -4 v 1 h -12 v -1 h -1 v -27"
               style="fill:url(#linearGradient30);fill-opacity:1;fill-rule:nonzero;stroke:none"
               id="path32" /></g></g></g><path
         d="m 120.219,30.6758 c 2.148,2.2265 3.234,5.3125 3.234,9.2578 0,3.9453 -1.07,6.8945 -3.195,8.8555 -2.121,1.9843 -5.238,2.9609 -9.328,2.9609 -1.321,0 -2.606,-0.0391 -3.86,-0.1094 -1.265,-0.0859 -2.531,-0.1445 -3.785,-0.2148 V 27.6367 c 1.051,-0.0976 2.176,-0.1836 3.379,-0.2344 1.211,-0.0468 2.508,-0.0781 3.871,-0.0781 4.305,0 7.531,1.125 9.684,3.3516 z M 96.7461,0.546875 V 56.9453 c 2.3047,0.2149 4.5939,0.3789 6.8479,0.5156 2.261,0.1368 4.574,0.1954 6.941,0.1954 6.242,0 11.09,-1.5235 14.528,-4.5704 3.433,-3.0468 5.156,-7.2929 5.156,-12.7617 0,-5.4609 -1.735,-9.9726 -5.196,-13.5547 -3.464,-3.5664 -8.425,-5.3437 -14.89,-5.3437 -1.254,0 -2.469,0.0195 -3.617,0.0703 -1.164,0.0469 -2.239,0.1172 -3.231,0.1641 V 0.546875 h -6.5389"
         style="fill:#656263;fill-opacity:1;fill-rule:nonzero;stroke:none"
         id="path34" /><path
         d="m 163.691,57.2656 -0.238,-5.75 h -6.144 V 6.30078 h 6.144 l 0.238,-5.753905 h -19.296 l 0.234,5.753905 h 6.148 V 51.5156 h -6.148 l -0.234,5.75 h 19.296"
         style="fill:#656263;fill-opacity:1;fill-rule:nonzero;stroke:none"
         id="path36" /><path
         d="m 198.34,73.3984 12.207,-10.625 -3.149,-3.9336 -12.996,10.2422 z m 19.062,-16.1328 h 6.922 V 24.1719 c 0,-8.0274 -1.758,-14.0625 -5.269,-18.10549 C 215.531,2.01172 210.336,0 203.461,0 c -6.879,0 -12.145,1.90625 -15.789,5.71484 -3.652,3.79688 -5.477,9.82426 -5.477,18.06646 v 33.4843 h 7.325 v -33.875 c 0,-6.25 1.3,-10.6367 3.898,-13.1562 2.602,-2.51956 5.945,-3.77737 10.043,-3.77737 4.094,0 7.437,1.34766 10.039,4.02347 2.598,2.664 3.902,7.2343 3.902,13.6914 v 33.0937"
         style="fill:#656263;fill-opacity:1;fill-rule:nonzero;stroke:none"
         id="path38" /><path
         d="M 272.363,0.546875 V 57.2656 h 31.891 l -0.391,-5.9843 H 278.902 V 33.0664 h 23.387 V 27.0898 H 278.902 V 0.546875 h -6.539"
         style="fill:#656263;fill-opacity:1;fill-rule:nonzero;stroke:none"
         id="path40" /><path
         d="m 332.285,46.1523 c -3.199,-3.5625 -4.801,-9.1875 -4.801,-16.8554 0,-7.6641 1.602,-13.418 4.801,-17.2461 3.207,-3.83596 7.246,-5.75002 12.129,-5.75002 4.883,0 8.93,1.91406 12.129,5.75002 3.203,3.8281 4.805,9.582 4.805,17.2461 0,7.6679 -1.602,13.2929 -4.805,16.8554 -3.199,3.586 -7.246,5.3633 -12.129,5.3633 -4.883,0 -8.922,-1.7773 -12.129,-5.3633 z m 29.731,4.2188 c 4.277,-4.8516 6.422,-11.8828 6.422,-21.0742 0,-9.1875 -2.145,-16.3477 -6.422,-21.45315 -4.278,-5.12891 -10.141,-7.6875 -17.602,-7.6875 -7.449,0 -13.316,2.55859 -17.598,7.6875 -4.277,5.10545 -6.421,12.26565 -6.421,21.45315 0,9.1914 2.144,16.2226 6.421,21.0742 4.282,4.8555 10.149,7.2852 17.598,7.2852 7.461,0 13.324,-2.4297 17.602,-7.2852"
         style="fill:#656263;fill-opacity:1;fill-rule:nonzero;stroke:none"
         id="path42" /><path
         d="m 410.57,34.8047 c 2.207,2.1016 3.309,4.7383 3.309,7.8828 0,3.1523 -0.981,5.418 -2.957,6.8164 -1.961,1.3867 -4.711,2.0899 -8.227,2.0899 -1.367,0 -2.691,-0.0391 -3.968,-0.1172 -1.289,-0.0782 -2.512,-0.168 -3.664,-0.2735 V 31.8164 c 0.675,-0.0469 1.425,-0.0859 2.238,-0.125 0.82,-0.0195 1.699,-0.0391 2.644,-0.0391 4.883,0 8.422,1.0547 10.625,3.1524 z M 395.063,0.546875 h -6.54 V 57.0313 c 2.368,0.207 4.614,0.371 6.735,0.4687 2.125,0.1094 4.472,0.1563 7.047,0.1563 5.461,0 9.914,-1.2188 13.355,-3.6602 3.434,-2.4414 5.153,-6.2031 5.153,-11.3086 0,-3.9258 -1.133,-7.2852 -3.395,-10.0391 -2.246,-2.7656 -5.48,-4.6875 -9.68,-5.7929 1.106,-0.7891 2.157,-1.7578 3.153,-2.918 0.984,-1.1523 1.937,-2.5117 2.832,-4.082 L 424.742,0.546875 h -7.945 L 408.918,15.1172 c -2.148,3.9844 -4.09,6.7109 -5.82,8.1562 -1.735,1.4336 -3.973,2.2461 -6.703,2.4024 l -1.332,0.0664 V 0.546875"
         style="fill:#656263;fill-opacity:1;fill-rule:nonzero;stroke:none"
         id="path44" /><path
         d="m 434.973,51.5156 v 5.75 h 41.738 v -5.75 H 459.066 V 0.546875 h -6.527 V 51.5156 h -17.566"
         style="fill:#656263;fill-opacity:1;fill-rule:nonzero;stroke:none"
         id="path46" /><path
         d="m 508.621,57.2656 -0.254,-5.75 h -6.125 V 6.30078 h 6.125 l 0.254,-5.753905 h -19.305 l 0.235,5.753905 h 6.148 V 51.5156 h -6.148 l -0.235,5.75 h 19.305"
         style="fill:#656263;fill-opacity:1;fill-rule:nonzero;stroke:none"
         id="path48" /><path
         d="m 566.863,57.2656 -0.215,-5.75 h -6.152 V 6.30078 h 6.152 l 0.215,-5.753905 H 547.59 l 0.23,5.753905 h 6.133 V 51.5156 h -6.133 l -0.23,5.75 h 19.273"
         style="fill:#656263;fill-opacity:1;fill-rule:nonzero;stroke:none"
         id="path50" /><path
         d="m 585.793,57.2656 h 8.238 l 24.59,-46.5625 v 46.5625 h 6.524 V 0.546875 h -8.258 L 592.313,47.0234 V 0.546875 h -6.52 V 57.2656"
         style="fill:#656263;fill-opacity:1;fill-rule:nonzero;stroke:none"
         id="path52" /><path
         d="m 650.242,54.1914 c 3.321,2.3047 7.446,3.4649 12.324,3.4649 2.93,0 5.625,-0.2227 8.032,-0.6719 2.422,-0.4414 4.59,-0.9297 6.519,-1.4571 l -1.172,-6.0625 c -2.144,0.5274 -4.273,0.9844 -6.367,1.375 -2.105,0.3907 -4.449,0.586 -7.012,0.586 -3.14,0 -5.664,-0.5938 -7.5,-1.8047 -1.812,-1.2031 -2.753,-2.9883 -2.753,-5.3516 0,-2.3632 0.941,-4.3164 2.753,-5.8789 1.836,-1.5429 4.747,-3.2734 8.672,-5.1562 l 1.977,-0.9492 c 4.351,-2.0977 7.871,-4.3946 10.547,-6.8946 2.691,-2.4883 4.004,-5.7812 4.004,-9.8711 0,-4.3086 -1.68,-7.94919 -5.078,-10.91794 -3.364,-2.96093 -8.11,-4.44531 -14.204,-4.44531 -3.14,0 -6.011,0.226563 -8.574,0.675781 -2.574,0.437499 -4.82,0.878909 -6.773,1.296879 l 1.48,6.3789 c 1.992,-0.51953 4.121,-0.99609 6.391,-1.42578 2.246,-0.41015 4.746,-0.625 7.476,-0.625 3.735,0 6.684,0.86719 8.911,2.60547 2.207,1.7305 3.296,3.8789 3.296,6.457 0,2.5586 -1.035,4.6485 -3.086,6.2578 -2.046,1.6016 -4.683,3.1836 -7.925,4.7657 l -1.977,0.9375 c -4.512,2.1601 -8.125,4.414 -10.855,6.7773 -2.739,2.3633 -4.106,5.6953 -4.106,10.0117 0,4.3047 1.66,7.6172 5,9.9219"
         style="fill:#656263;fill-opacity:1;fill-rule:nonzero;stroke:none"
         id="path54" /><path
         d="m 714.91,57.2656 -0.23,-5.75 h -6.133 V 6.30078 h 6.133 l 0.23,-5.753905 h -19.273 l 0.215,5.753905 h 6.152 V 51.5156 h -6.152 l -0.215,5.75 h 19.273"
         style="fill:#656263;fill-opacity:1;fill-rule:nonzero;stroke:none"
         id="path56" /><path
         d="M 733.816,0.546875 V 57.2656 h 31.899 l -0.41,-5.9062 H 740.359 V 32.9102 h 23.379 V 27.0117 H 740.359 V 6.45703 h 25.746 V 0.546875 h -32.289"
         style="fill:#656263;fill-opacity:1;fill-rule:nonzero;stroke:none"
         id="path58" /><path
         d="M 798.391,57.2656 813.738,6.30078 829.871,57.2656 h 8.281 L 843.254,0.546875 H 836.57 L 832.645,47.2656 818.059,0.546875 h -9.121 L 795.168,46.8672 791.301,0.546875 h -6.699 l 5.117,56.718725 h 8.672"
         style="fill:#656263;fill-opacity:1;fill-rule:nonzero;stroke:none"
         id="path60" /><path
         d="M 864.543,0.546875 V 57.2656 h 31.895 l -0.391,-5.9062 H 871.063 V 32.9102 h 23.402 V 27.0117 H 871.063 V 6.45703 h 25.761 V 0.546875 h -32.281"
         style="fill:#656263;fill-opacity:1;fill-rule:nonzero;stroke:none"
         id="path62" /></g></g></svg>
