<?xml version="1.0" encoding="UTF-8" standalone="no"?>
<!-- Created with Inkscape (http://www.inkscape.org/) -->

<svg
   version="1.1"
   id="svg2"
   xml:space="preserve"
   width="415.98666"
   height="50.306667"
   viewBox="0 0 415.98666 50.306667"
   sodipodi:docname="rep_ti_dss_colori.eps"
   xmlns:inkscape="http://www.inkscape.org/namespaces/inkscape"
   xmlns:sodipodi="http://sodipodi.sourceforge.net/DTD/sodipodi-0.dtd"
   xmlns="http://www.w3.org/2000/svg"
   xmlns:svg="http://www.w3.org/2000/svg"><defs
     id="defs6" /><sodipodi:namedview
     id="namedview4"
     pagecolor="#ffffff"
     bordercolor="#666666"
     borderopacity="1.0"
     inkscape:pageshadow="2"
     inkscape:pageopacity="0.0"
     inkscape:pagecheckerboard="0" /><g
     id="g8"
     inkscape:groupmode="layer"
     inkscape:label="ink_ext_XXXXXX"
     transform="matrix(1.3333333,0,0,-1.3333333,0,50.306667)"><g
       id="g10"
       transform="scale(0.1)"><path
         d="M 356.773,34.5781 V 256.875 H 263.688 V 34.5781 h 93.085"
         style="fill:#231f20;fill-opacity:1;fill-rule:nonzero;stroke:none"
         id="path12" /><path
         d="m 310.227,272.324 c 29.132,0 52.753,23.496 52.753,52.481 0,28.992 -23.621,52.476 -52.753,52.476 -29.133,0 -52.747,-23.484 -52.747,-52.476 0,-28.985 23.614,-52.481 52.747,-52.481"
         style="fill:#231f20;fill-opacity:1;fill-rule:nonzero;stroke:none"
         id="path14" /><path
         d="m 312.422,326.992 v 0 l -4.387,-4.375 v 0 l 4.387,4.375"
         style="fill:#231f20;fill-opacity:1;fill-rule:nonzero;stroke:none"
         id="path16" /><path
         d="m 308.035,326.992 v 0 l 4.387,-4.375 v 0 l -4.387,4.375"
         style="fill:#231f20;fill-opacity:1;fill-rule:nonzero;stroke:none"
         id="path18" /><path
         d="m 193.977,106.035 c -9.805,2.07 -17.164,10.742 -17.164,21.113 l 0.039,0.071 v 61.746 h 62.058 v 67.91 h -62.058 v 108.027 h -6.227 L 0,195.129 v -6.164 H 77.5703 V 96.3555 c 0,-35.4688 27.2887,-64.5703 61.8987,-67.5547 l 0.105,-0.082 c 6.141,-0.5665 12.356,-0.8594 18.641,-0.8594 28.719,0 56.019,6.0351 80.691,16.9375 v 62.3401 c -7.933,-2.059 -16.246,-3.172 -24.828,-3.172 -6.906,0 -13.644,0.703 -20.137,2.07"
         style="fill:#231f20;fill-opacity:1;fill-rule:nonzero;stroke:none"
         id="path20" /><path
         d="m 830.492,245.078 h 17.434 c 8.301,0 14.73,1.746 19.301,5.242 4.558,3.489 6.843,8.391 6.843,14.68 0,6.348 -2.285,11.27 -6.843,14.766 -4.571,3.484 -11,5.234 -19.301,5.234 h -17.434 z m -7.91,47.031 h 25.27 c 10.937,0 19.492,-2.343 25.671,-7.031 6.172,-4.687 9.266,-11.211 9.266,-19.562 0,-8.297 -3.101,-14.793 -9.305,-19.481 -2.832,-2.148 -6.222,-3.808 -10.179,-4.98 1.515,-1.028 3.32,-2.668 5.422,-4.903 4.003,-4.308 7.984,-9.55 11.937,-15.754 l 19.41,-30.613 h -4.551 -4.554 l -19.41,30.613 c -4.782,7.571 -8.746,12.512 -11.891,14.836 -3.148,2.317 -7.477,3.477 -12.988,3.477 h -16.188 v -48.926 h -3.953 -3.957 v 102.324"
         style="fill:#231f20;fill-opacity:1;fill-rule:nonzero;stroke:none"
         id="path22" /><path
         d="m 954.949,231.016 c -0.777,5.324 -2.605,9.714 -5.484,13.183 -4.11,5.028 -9.723,7.547 -16.848,7.547 -6.351,0 -11.773,-2.734 -16.262,-8.199 -2.925,-3.617 -4.929,-7.793 -6.003,-12.531 z m -17.531,-42.774 c -10.305,0 -18.742,3.289 -25.309,9.852 -6.566,6.574 -9.847,15 -9.847,25.304 0,10.352 2.832,18.829 8.496,25.418 5.664,6.594 12.937,9.895 21.824,9.895 9.719,0 17.215,-3.086 22.484,-9.238 4.985,-5.664 7.59,-13.719 7.844,-24.16 h -53.219 v -1.543 c 0,-7.715 2.731,-14.297 8.2,-19.739 5.464,-5.445 12.074,-8.172 19.836,-8.172 4.683,0 9.05,0.75 13.101,2.254 4.043,1.504 8.098,3.879 12.152,7.121 v -7.39 c -4.003,-3.324 -8.07,-5.754 -12.199,-7.289 -4.125,-1.543 -8.578,-2.313 -13.363,-2.313"
         style="fill:#231f20;fill-opacity:1;fill-rule:nonzero;stroke:none"
         id="path24" /><path
         d="m 1002.29,195.352 c 8.14,0 14.72,2.578 19.73,7.722 5,5.156 7.51,11.926 7.51,20.324 0,7.813 -2.66,14.473 -7.99,19.961 -5.32,5.496 -11.75,8.243 -19.25,8.243 -5.681,0 -10.532,-0.926 -14.587,-2.786 -1.512,-0.683 -2.859,-1.464 -4.031,-2.343 v -45.77 l 4.324,-2.422 c 4.301,-1.953 9.055,-2.929 14.294,-2.929 z m -25.786,61.816 h 7.168 v -3.66 l 1.394,0.73 c 5.422,2.981 11.497,4.473 18.234,4.473 10.16,0 18.35,-3.242 24.58,-9.707 6.22,-6.477 9.34,-15.012 9.34,-25.606 0,-10.058 -3.23,-18.429 -9.67,-25.117 -6.45,-6.687 -14.53,-10.039 -24.25,-10.039 -7.03,0 -13.155,1.446 -18.378,4.324 l -1.25,0.657 V 155 h -3.582 -3.586 v 102.168"
         style="fill:#231f20;fill-opacity:1;fill-rule:nonzero;stroke:none"
         id="path26" /><path
         d="m 1059.55,216.23 c 0,-6.261 1.73,-11.3 5.2,-15.128 3.46,-3.836 8.05,-5.75 13.77,-5.75 6.34,0 12.11,2.929 17.28,8.789 1.47,1.66 2.83,3.515 4.1,5.566 v 47.461 h 3.6 3.58 v -67.383 h -3.58 -3.6 v 11.641 l -1.76,-2.481 c -5.56,-7.14 -12.48,-10.703 -20.72,-10.703 -7.53,0 -13.58,2.528 -18.16,7.586 -4.6,5.051 -6.9,11.699 -6.9,19.953 v 41.387 h 3.6 3.59 V 216.23"
         style="fill:#231f20;fill-opacity:1;fill-rule:nonzero;stroke:none"
         id="path28" /><path
         d="m 1148.67,195.352 c 8.74,0 16.01,2.695 21.79,8.093 5.79,5.395 8.68,12.168 8.68,20.325 0,8.3 -2.1,15.136 -6.3,20.507 -4.2,5.371 -9.55,8.059 -16.04,8.059 -6.45,0 -12.21,-1.828 -17.29,-5.5 -2.73,-1.953 -5.08,-4.27 -7.03,-6.953 v -41.309 l 3.09,-1.25 c 3.84,-1.308 8.22,-1.972 13.1,-1.972 z m -23.36,96.757 h 7.17 V 248.23 c 1.33,1.274 2.67,2.415 4.03,3.45 6.35,4.687 13.16,7.031 20.44,7.031 8.98,0 16.2,-3.242 21.68,-9.707 5.46,-6.477 8.21,-15.012 8.21,-25.606 0,-10.058 -3.58,-18.429 -10.71,-25.117 -7.13,-6.687 -16.06,-10.039 -26.79,-10.039 -3.92,0 -8.07,0.516 -12.46,1.543 -4.4,1.024 -8.26,2.391 -11.57,4.102 v 98.222"
         style="fill:#231f20;fill-opacity:1;fill-rule:nonzero;stroke:none"
         id="path30" /><path
         d="m 1222.88,195.352 c 8.74,0 16.01,2.695 21.79,8.093 5.79,5.395 8.68,12.168 8.68,20.325 0,8.3 -2.1,15.136 -6.3,20.507 -4.2,5.371 -9.55,8.059 -16.03,8.059 -6.45,0 -12.22,-1.828 -17.29,-5.5 -2.74,-1.953 -5.09,-4.27 -7.03,-6.953 v -41.309 l 3.07,-1.25 c 3.85,-1.308 8.23,-1.972 13.11,-1.972 z m -23.37,96.757 h 7.19 V 248.23 c 1.31,1.274 2.66,2.415 4.02,3.45 6.35,4.687 13.16,7.031 20.43,7.031 8.99,0 16.21,-3.242 21.68,-9.707 5.47,-6.477 8.21,-15.012 8.21,-25.606 0,-10.058 -3.57,-18.429 -10.69,-25.117 -7.14,-6.687 -16.07,-10.039 -26.81,-10.039 -3.91,0 -8.05,0.516 -12.45,1.543 -4.39,1.024 -8.26,2.391 -11.58,4.102 v 98.222"
         style="fill:#231f20;fill-opacity:1;fill-rule:nonzero;stroke:none"
         id="path32" /><path
         d="m 1274,292.109 h 7.19 V 189.785 H 1274 v 102.324"
         style="fill:#231f20;fill-opacity:1;fill-rule:nonzero;stroke:none"
         id="path34" /><path
         d="m 1301.91,257.168 h 7.17 v -67.383 h -7.17 z m 0,34.941 h 7.25 v -12.304 h -7.25 v 12.304"
         style="fill:#231f20;fill-opacity:1;fill-rule:nonzero;stroke:none"
         id="path36" /><path
         d="m 1377.42,191.836 c -3.51,-1.32 -6.62,-2.246 -9.3,-2.785 -2.69,-0.535 -5.64,-0.809 -8.86,-0.809 -9.88,0 -17.94,3.289 -24.21,9.852 -6.28,6.574 -9.42,15 -9.42,25.304 0,10.352 3.14,18.829 9.42,25.418 6.27,6.594 14.33,9.895 24.21,9.895 2.77,0 5.4,-0.273 7.87,-0.813 2.46,-0.535 5.38,-1.464 8.75,-2.781 v -7.402 c -3.61,1.394 -6.72,2.375 -9.3,2.918 -2.6,0.547 -5.38,0.82 -8.36,0.82 -6.98,0 -12.92,-2.734 -17.83,-8.199 -4.9,-5.473 -7.36,-12.082 -7.36,-19.856 0,-8.632 2.39,-15.449 7.18,-20.429 4.78,-4.981 11.35,-7.473 19.7,-7.473 3.03,0 5.83,0.274 8.43,0.82 2.58,0.547 5.61,1.528 9.08,2.922 v -7.402"
         style="fill:#231f20;fill-opacity:1;fill-rule:nonzero;stroke:none"
         id="path38" /><path
         d="m 1426.12,224.727 c -8.64,-0.207 -16.11,-2.082 -22.41,-5.645 -6.54,-3.762 -9.81,-8.301 -9.81,-13.621 0,-3.078 1.29,-5.656 3.87,-7.727 2.59,-2.082 5.79,-3.117 9.6,-3.117 3.76,0 7.35,0.793 10.77,2.387 3.41,1.582 6.08,3.699 7.98,6.336 z m -21.38,-36.485 c -4.98,0 -9.18,1.629 -12.6,4.871 -3.42,3.254 -5.13,7.239 -5.13,11.985 0,7.617 3.73,13.742 11.21,18.379 7.17,4.492 16.48,6.816 27.9,6.953 v 8.496 c 0,4.492 -1.22,7.793 -3.66,9.89 -2.44,2.102 -6.28,3.157 -11.5,3.157 -3.71,0 -7.21,-0.696 -10.51,-2.051 -3.29,-1.375 -6.55,-3.477 -9.78,-6.309 v 7.696 c 3.57,2.586 7.1,4.472 10.62,5.644 3.51,1.172 7.37,1.758 11.58,1.758 6.29,0 11.27,-1.555 14.94,-4.66 3.65,-3.094 5.49,-7.285 5.49,-12.559 v -42.918 c 0,-1.125 0.19,-1.941 0.55,-2.453 0.37,-0.516 0.94,-0.769 1.72,-0.769 0.58,0 1.77,0.554 3.55,1.679 1.79,1.121 3.63,2.473 5.53,4.032 l 0.08,-5.567 c -2.2,-1.902 -4.67,-3.555 -7.41,-4.941 -2.73,-1.395 -4.9,-2.086 -6.51,-2.086 -1.51,0 -2.68,0.691 -3.48,2.086 -0.81,1.386 -1.21,3.379 -1.21,5.968 v 0.149 c -2.1,-1.762 -4.57,-3.371 -7.39,-4.836 -4.79,-2.395 -9.45,-3.594 -13.99,-3.594"
         style="fill:#231f20;fill-opacity:1;fill-rule:nonzero;stroke:none"
         id="path40" /><path
         d="m 1530.38,231.016 c -0.78,5.324 -2.62,9.714 -5.5,13.183 -4.1,5.028 -9.71,7.547 -16.84,7.547 -6.35,0 -11.77,-2.734 -16.26,-8.199 -2.93,-3.617 -4.93,-7.793 -6.01,-12.531 z m -17.54,-42.774 c -10.3,0 -18.74,3.289 -25.3,9.852 -6.57,6.574 -9.85,15 -9.85,25.304 0,10.352 2.83,18.829 8.49,25.418 5.67,6.594 12.94,9.895 21.83,9.895 9.71,0 17.2,-3.086 22.48,-9.238 4.98,-5.664 7.6,-13.719 7.84,-24.16 h -53.21 v -1.543 c 0,-7.715 2.73,-14.297 8.19,-19.739 5.47,-5.445 12.08,-8.172 19.84,-8.172 4.68,0 9.05,0.75 13.1,2.254 4.05,1.504 8.11,3.879 12.15,7.121 v -7.39 c -4.01,-3.324 -8.07,-5.754 -12.19,-7.289 -4.13,-1.543 -8.58,-2.313 -13.37,-2.313"
         style="fill:#231f20;fill-opacity:1;fill-rule:nonzero;stroke:none"
         id="path42" /><path
         d="m 1667.54,197.988 c -6.73,-3.418 -13,-5.851 -18.82,-7.285 -5.8,-1.445 -12.25,-2.168 -19.34,-2.168 -14.36,0 -26.7,5.156 -37.05,15.457 -10.35,10.305 -15.53,22.61 -15.53,36.914 0,14.699 5.08,27.11 15.28,37.246 10.17,10.129 22.61,15.196 37.3,15.196 7.09,0 13.54,-0.723 19.34,-2.157 5.82,-1.445 12.09,-3.878 18.82,-7.285 v -8.066 c -6.58,3.711 -12.77,6.375 -18.53,7.988 -5.76,1.61 -12.05,2.422 -18.89,2.422 -12.3,0 -22.81,-4.426 -31.54,-13.262 -8.71,-8.84 -13.07,-19.531 -13.07,-32.082 0,-12.5 4.36,-23.172 13.07,-32 8.73,-8.847 19.24,-13.261 31.54,-13.261 6.84,0 13.13,0.8 18.89,2.421 5.76,1.602 11.95,4.27 18.53,7.981 v -8.059"
         style="fill:#231f20;fill-opacity:1;fill-rule:nonzero;stroke:none"
         id="path44" /><path
         d="m 1714.77,224.727 c -8.65,-0.207 -16.11,-2.082 -22.42,-5.645 -6.54,-3.762 -9.81,-8.301 -9.81,-13.621 0,-3.078 1.29,-5.656 3.89,-7.727 2.58,-2.082 5.78,-3.117 9.59,-3.117 3.75,0 7.34,0.793 10.76,2.387 3.42,1.582 6.08,3.699 7.99,6.336 z m -21.39,-36.485 c -4.98,0 -9.18,1.629 -12.59,4.871 -3.42,3.254 -5.14,7.239 -5.14,11.985 0,7.617 3.75,13.742 11.21,18.379 7.19,4.492 16.48,6.816 27.91,6.953 v 8.496 c 0,4.492 -1.23,7.793 -3.67,9.89 -2.44,2.102 -6.27,3.157 -11.49,3.157 -3.73,0 -7.22,-0.696 -10.52,-2.051 -3.28,-1.375 -6.55,-3.477 -9.77,-6.309 v 7.696 c 3.56,2.586 7.11,4.472 10.63,5.644 3.51,1.172 7.36,1.758 11.56,1.758 6.31,0 11.29,-1.555 14.94,-4.66 3.67,-3.094 5.49,-7.285 5.49,-12.559 v -42.918 c 0,-1.125 0.19,-1.941 0.55,-2.453 0.37,-0.516 0.93,-0.769 1.73,-0.769 0.59,0 1.76,0.554 3.54,1.679 1.8,1.121 3.63,2.473 5.55,4.032 l 0.05,-5.567 c -2.18,-1.902 -4.66,-3.555 -7.38,-4.941 -2.75,-1.395 -4.92,-2.086 -6.52,-2.086 -1.53,0 -2.68,0.691 -3.48,2.086 -0.82,1.386 -1.21,3.379 -1.21,5.968 v 0.149 c -2.11,-1.762 -4.57,-3.371 -7.4,-4.836 -4.79,-2.395 -9.45,-3.594 -13.99,-3.594"
         style="fill:#231f20;fill-opacity:1;fill-rule:nonzero;stroke:none"
         id="path46" /><path
         d="m 1743.11,257.168 h 7.17 v -11.426 l 1.76,2.266 c 5.56,7.129 12.48,10.703 20.72,10.703 7.52,0 13.57,-2.531 18.16,-7.59 4.59,-5.047 6.9,-11.707 6.9,-19.949 v -41.387 h -3.6 -3.59 v 40.938 c 0,6.25 -1.74,11.297 -5.2,15.125 -3.47,3.84 -8.04,5.754 -13.76,5.754 -6.35,0 -12.11,-2.93 -17.29,-8.789 -1.46,-1.661 -2.83,-3.516 -4.1,-5.567 v -47.461 h -3.6 -3.57 v 67.383"
         style="fill:#231f20;fill-opacity:1;fill-rule:nonzero;stroke:none"
         id="path48" /><path
         d="m 1851.7,192.129 c -3.41,-2.586 -7.73,-3.887 -12.95,-3.887 -5.13,0 -9.19,1.434 -12.16,4.285 -2.99,2.864 -4.48,6.75 -4.48,11.692 v 47.011 h -18.08 v 5.938 h 18.08 v 16.258 l 4.98,6.008 h 0.08 2.13 v -2.493 -19.773 h 18.09 v -5.938 h -18.09 v -44.96 c 0,-3.77 0.82,-6.524 2.48,-8.282 1.66,-1.758 4.28,-2.636 7.85,-2.636 4.98,0 9.01,1.25 12.07,3.73 v -6.953"
         style="fill:#231f20;fill-opacity:1;fill-rule:nonzero;stroke:none"
         id="path50" /><path
         d="m 1911.27,203.445 c 5.26,5.489 7.88,12.141 7.88,19.953 0,7.86 -2.62,14.551 -7.88,20.079 -5.25,5.507 -11.58,8.269 -19,8.269 -7.42,0 -13.77,-2.762 -19,-8.269 -5.26,-5.528 -7.87,-12.219 -7.87,-20.079 0,-7.812 2.61,-14.464 7.87,-19.953 5.23,-5.496 11.58,-8.242 19,-8.242 7.42,0 13.75,2.746 19,8.242 z m -43.69,-5.351 c -6.4,6.574 -9.59,15 -9.59,25.304 0,10.352 3.19,18.829 9.59,25.418 6.39,6.594 14.63,9.895 24.69,9.895 10.06,0 18.28,-3.301 24.69,-9.895 6.38,-6.589 9.59,-15.066 9.59,-25.418 0,-10.304 -3.21,-18.73 -9.59,-25.304 -6.41,-6.563 -14.63,-9.852 -24.69,-9.852 -10.06,0 -18.3,3.289 -24.69,9.852"
         style="fill:#231f20;fill-opacity:1;fill-rule:nonzero;stroke:none"
         id="path52" /><path
         d="m 1941.1,257.168 h 7.19 v -11.426 l 1.75,2.266 c 5.57,7.129 12.46,10.703 20.73,10.703 7.52,0 13.57,-2.531 18.16,-7.59 4.59,-5.047 6.88,-11.707 6.88,-19.949 v -41.387 h -3.58 -3.59 v 40.938 c 0,6.25 -1.74,11.297 -5.2,15.125 -3.47,3.84 -8.06,5.754 -13.77,5.754 -6.36,0 -12.13,-2.93 -17.28,-8.789 -1.47,-1.661 -2.85,-3.516 -4.1,-5.567 v -47.461 h -3.6 -3.59 v 67.383"
         style="fill:#231f20;fill-opacity:1;fill-rule:nonzero;stroke:none"
         id="path54" /><path
         d="m 2063.87,231.016 c -0.78,5.324 -2.62,9.714 -5.49,13.183 -4.1,5.028 -9.72,7.547 -16.85,7.547 -6.35,0 -11.76,-2.734 -16.25,-8.199 -2.93,-3.617 -4.94,-7.793 -6.02,-12.531 z m -17.54,-42.774 c -10.29,0 -18.73,3.289 -25.29,9.852 -6.58,6.574 -9.86,15 -9.86,25.304 0,10.352 2.83,18.829 8.49,25.418 5.67,6.594 12.95,9.895 21.84,9.895 9.71,0 17.21,-3.086 22.48,-9.238 4.98,-5.664 7.6,-13.719 7.83,-24.16 h -53.2 v -1.543 c 0,-7.715 2.73,-14.297 8.18,-19.739 5.47,-5.445 12.09,-8.172 19.85,-8.172 4.68,0 9.04,0.75 13.1,2.254 4.04,1.504 8.11,3.879 12.15,7.121 v -7.39 c -4,-3.324 -8.07,-5.754 -12.19,-7.289 -4.14,-1.543 -8.59,-2.313 -13.38,-2.313"
         style="fill:#231f20;fill-opacity:1;fill-rule:nonzero;stroke:none"
         id="path56" /><path
         d="m 2142.68,285.508 h -38.38 v 6.601 h 84.67 v -3.3 -3.301 h -38.38 v -95.723 h -3.96 -3.95 v 95.723"
         style="fill:#231f20;fill-opacity:1;fill-rule:nonzero;stroke:none"
         id="path58" /><path
         d="m 2200.18,257.168 h 7.17 v -67.383 h -7.17 z m 0,34.941 h 7.25 v -12.304 h -7.25 v 12.304"
         style="fill:#231f20;fill-opacity:1;fill-rule:nonzero;stroke:none"
         id="path60" /><path
         d="m 2275.98,191.836 c -3.51,-1.32 -6.62,-2.246 -9.31,-2.785 -2.68,-0.535 -5.63,-0.809 -8.85,-0.809 -9.89,0 -17.95,3.289 -24.22,9.852 -6.27,6.574 -9.42,15 -9.42,25.304 0,10.352 3.15,18.829 9.42,25.418 6.27,6.594 14.33,9.895 24.22,9.895 2.77,0 5.39,-0.273 7.87,-0.813 2.46,-0.535 5.37,-1.464 8.75,-2.781 v -7.402 c -3.61,1.394 -6.72,2.375 -9.3,2.918 -2.6,0.547 -5.39,0.82 -8.36,0.82 -6.99,0 -12.93,-2.734 -17.83,-8.199 -4.9,-5.473 -7.36,-12.082 -7.36,-19.856 0,-8.632 2.38,-15.449 7.18,-20.429 4.77,-4.981 11.35,-7.473 19.69,-7.473 3.03,0 5.84,0.274 8.44,0.82 2.58,0.547 5.6,1.528 9.08,2.922 v -7.402"
         style="fill:#231f20;fill-opacity:1;fill-rule:nonzero;stroke:none"
         id="path62" /><path
         d="m 2290.92,257.168 h 7.17 v -67.383 h -7.17 z m 0,34.941 h 7.25 v -12.304 h -7.25 v 12.304"
         style="fill:#231f20;fill-opacity:1;fill-rule:nonzero;stroke:none"
         id="path64" /><path
         d="m 2317.93,257.168 h 7.19 v -11.426 l 1.76,2.266 c 5.57,7.129 12.46,10.703 20.72,10.703 7.52,0 13.58,-2.531 18.17,-7.59 4.59,-5.047 6.87,-11.707 6.87,-19.949 v -41.387 h -3.57 -3.6 v 40.938 c 0,6.25 -1.73,11.297 -5.19,15.125 -3.48,3.84 -8.07,5.754 -13.77,5.754 -6.37,0 -12.13,-2.93 -17.29,-8.789 -1.46,-1.661 -2.85,-3.516 -4.1,-5.567 v -47.461 h -3.59 -3.6 v 67.383"
         style="fill:#231f20;fill-opacity:1;fill-rule:nonzero;stroke:none"
         id="path66" /><path
         d="m 2441.74,203.445 c 5.26,5.489 7.89,12.141 7.89,19.953 0,7.86 -2.63,14.551 -7.89,20.079 -5.23,5.507 -11.58,8.269 -19,8.269 -7.42,0 -13.75,-2.762 -19,-8.269 -5.26,-5.528 -7.88,-12.219 -7.88,-20.079 0,-7.812 2.62,-14.464 7.88,-19.953 5.25,-5.496 11.58,-8.242 19,-8.242 7.42,0 13.77,2.746 19,8.242 z m -43.67,-5.351 c -6.4,6.574 -9.61,15 -9.61,25.304 0,10.352 3.21,18.829 9.61,25.418 6.39,6.594 14.61,9.895 24.67,9.895 10.06,0 18.28,-3.301 24.69,-9.895 6.38,-6.589 9.59,-15.066 9.59,-25.418 0,-10.304 -3.21,-18.73 -9.59,-25.304 -6.41,-6.563 -14.63,-9.852 -24.69,-9.852 -10.06,0 -18.28,3.289 -24.67,9.852"
         style="fill:#231f20;fill-opacity:1;fill-rule:nonzero;stroke:none"
         id="path68" /><path
         d="m 830.492,41.8945 h 28.492 c 14.114,0 25.391,3.9922 33.836,12.0118 8.45,7.996 12.672,18.6718 12.672,32 0,13.3789 -4.09,24.0737 -12.269,32.0817 -8.18,8.008 -19.102,12.012 -32.774,12.012 h -29.957 z m -7.91,95.2145 h 37.867 c 16.16,0 29.16,-4.687 39.004,-14.062 9.832,-9.375 14.758,-21.758 14.758,-37.1407 0,-15.3321 -5.055,-27.6836 -15.164,-37.0586 -10.106,-9.375 -23.461,-14.0625 -40.063,-14.0625 h -32.445 -3.957 V 137.109"
         style="fill:#231f20;fill-opacity:1;fill-rule:nonzero;stroke:none"
         id="path70" /><path
         d="m 929.23,102.168 h 7.176 V 34.7852 h -7.176 z m 0,34.941 h 7.25 v -12.304 h -7.25 v 12.304"
         style="fill:#231f20;fill-opacity:1;fill-rule:nonzero;stroke:none"
         id="path72" /><path
         d="m 979.18,40.3516 c 8.156,0 14.738,2.5781 19.738,7.7226 5.012,5.1563 7.512,11.9258 7.512,20.3242 0,7.8125 -2.67,14.4727 -7.992,19.961 -5.325,5.4961 -11.739,8.2422 -19.258,8.2422 -5.664,0 -10.528,-0.9258 -14.571,-2.7852 -1.523,-0.6836 -2.863,-1.4648 -4.035,-2.3437 V 45.7031 l 4.328,-2.4218 c 4.286,-1.9532 9.051,-2.9297 14.278,-2.9297 z m -25.782,61.8164 h 7.176 v -3.6602 l 1.399,0.7305 c 5.41,2.9807 11.496,4.4727 18.23,4.4727 10.156,0 18.352,-3.242 24.577,-9.7071 6.23,-6.4766 9.34,-15.0117 9.34,-25.6055 0,-10.0586 -3.22,-18.4296 -9.67,-25.1171 -6.442,-6.6875 -14.528,-10.0391 -24.247,-10.0391 -7.027,0 -13.16,1.4453 -18.387,4.3242 l -1.242,0.6563 V 0 h -3.582 -3.594 v 102.168"
         style="fill:#231f20;fill-opacity:1;fill-rule:nonzero;stroke:none"
         id="path74" /><path
         d="m 1063.45,69.7266 c -8.65,-0.2071 -16.12,-2.0821 -22.41,-5.6446 -6.55,-3.7617 -9.82,-8.3007 -9.82,-13.6211 0,-3.0781 1.29,-5.6562 3.88,-7.7265 2.59,-2.0821 5.79,-3.1172 9.6,-3.1172 3.76,0 7.34,0.793 10.77,2.3867 3.41,1.582 6.07,3.6992 7.98,6.3359 z m -21.39,-36.4844 c -4.98,0 -9.18,1.6289 -12.6,4.8711 -3.42,3.2539 -5.12,7.2383 -5.12,11.9844 0,7.6171 3.73,13.7421 11.21,18.3789 7.16,4.4922 16.47,6.8164 27.9,6.9531 v 8.4961 c 0,4.4922 -1.22,7.793 -3.66,9.8906 -2.45,2.1016 -6.28,3.1563 -11.51,3.1563 -3.71,0 -7.21,-0.6954 -10.51,-2.0508 -3.29,-1.375 -6.55,-3.4766 -9.77,-6.3086 v 7.6953 c 3.56,2.5859 7.1,4.4724 10.61,5.6444 3.52,1.172 7.38,1.758 11.59,1.758 6.28,0 11.26,-1.555 14.94,-4.6602 3.65,-3.0938 5.49,-7.2852 5.49,-12.5586 v -42.918 c 0,-1.125 0.18,-1.9414 0.54,-2.4531 0.37,-0.5156 0.94,-0.7695 1.72,-0.7695 0.59,0 1.78,0.5547 3.56,1.6797 1.78,1.121 3.63,2.4726 5.52,4.0312 l 0.08,-5.5664 c -2.2,-1.9023 -4.67,-3.5547 -7.4,-4.9414 -2.74,-1.3945 -4.9,-2.0859 -6.52,-2.0859 -1.51,0 -2.67,0.6914 -3.47,2.0859 -0.81,1.3867 -1.21,3.3789 -1.21,5.9687 v 0.1485 c -2.1,-1.7617 -4.57,-3.3711 -7.4,-4.836 -4.79,-2.3945 -9.45,-3.5937 -13.99,-3.5937"
         style="fill:#231f20;fill-opacity:1;fill-rule:nonzero;stroke:none"
         id="path76" /><path
         d="m 1092.6,102.168 h 7.17 V 83.7109 c 2.83,5.1289 6.08,9.4727 9.74,13.0352 4.88,4.6409 9.77,6.9649 14.65,6.9649 2.15,0 4.4,-0.664 6.78,-1.984 2.36,-1.317 5.09,-3.4184 8.16,-6.2973 l -3.65,-6.3477 c -3.27,2.7735 -6,4.7461 -8.16,5.9063 -2.18,1.1719 -4.22,1.7578 -6.13,1.7578 -3.07,0 -6.37,-1.6406 -9.89,-4.9102 -3.52,-3.2734 -7.34,-8.2734 -11.5,-15.0117 v -42.039 h -3.59 -3.58 v 67.3828"
         style="fill:#231f20;fill-opacity:1;fill-rule:nonzero;stroke:none"
         id="path78" /><path
         d="m 1179.38,37.1289 c -3.41,-2.5859 -7.74,-3.8867 -12.95,-3.8867 -5.14,0 -9.19,1.4336 -12.17,4.2851 -2.98,2.8633 -4.47,6.75 -4.47,11.6915 v 47.0117 h -18.09 v 5.9375 h 18.09 v 16.258 l 4.99,6.008 h 0.06 2.13 v -2.493 -19.773 h 18.09 v -5.9375 h -18.09 v -44.961 c 0,-3.7695 0.83,-6.5234 2.49,-8.2812 1.66,-1.7578 4.27,-2.6367 7.84,-2.6367 4.99,0 9.01,1.25 12.08,3.7304 v -6.9531"
         style="fill:#231f20;fill-opacity:1;fill-rule:nonzero;stroke:none"
         id="path80" /><path
         d="m 1188.79,102.168 h 7.19 V 34.7852 h -7.19 z m 0,34.941 h 7.25 v -12.304 h -7.25 v 12.304"
         style="fill:#231f20;fill-opacity:1;fill-rule:nonzero;stroke:none"
         id="path82" /><path
         d="m 1214.04,102.168 h 7.17 V 91.1797 l 1.4,1.8281 c 5.37,7.1292 11.98,10.7032 19.85,10.7032 7.17,0 12.96,-2.422 17.35,-7.2579 2.15,-2.3906 3.78,-5.125 4.92,-8.1992 l 3.07,4.7539 c 5.33,7.1292 11.94,10.7032 19.81,10.7032 7.18,0 12.99,-2.422 17.38,-7.2579 4.4,-4.832 6.61,-11.1992 6.61,-19.1093 V 34.7852 h -3.59 -3.6 v 41.9726 c 0,5.9453 -1.65,10.75 -4.95,14.3828 -3.3,3.6446 -7.66,5.461 -13.09,5.461 -5.92,0 -11.33,-2.9297 -16.22,-8.7891 -1.32,-1.5117 -2.57,-3.2695 -3.74,-5.2734 V 34.7852 h -3.6 -3.58 v 41.9726 c 0,5.9453 -1.65,10.75 -4.94,14.3828 -3.3,3.6446 -7.66,5.461 -13.08,5.461 -5.91,0 -11.33,-2.9297 -16.26,-8.7891 -1.32,-1.5117 -2.57,-3.2695 -3.74,-5.2734 V 34.7852 h -3.58 -3.59 v 67.3828"
         style="fill:#231f20;fill-opacity:1;fill-rule:nonzero;stroke:none"
         id="path84" /><path
         d="m 1377.87,76.0156 c -0.78,5.3242 -2.62,9.7149 -5.5,13.1836 -4.1,5.0274 -9.71,7.5469 -16.84,7.5469 -6.35,0 -11.77,-2.7344 -16.26,-8.1992 -2.93,-3.6172 -4.93,-7.793 -6.01,-12.5313 z m -17.54,-42.7734 c -10.3,0 -18.74,3.2891 -25.3,9.8516 -6.57,6.5742 -9.85,15 -9.85,25.3046 0,10.3516 2.83,18.8282 8.49,25.418 5.67,6.5936 12.94,9.8946 21.83,9.8946 9.71,0 17.21,-3.086 22.49,-9.2383 4.98,-5.6641 7.59,-13.7188 7.83,-24.1602 h -53.21 v -1.543 c 0,-7.7148 2.73,-14.2968 8.19,-19.7382 5.47,-5.4454 12.08,-8.1719 19.84,-8.1719 4.68,0 9.05,0.75 13.1,2.2539 4.05,1.5039 8.11,3.8789 12.16,7.1211 v -7.3906 c -4.02,-3.3243 -8.08,-5.754 -12.2,-7.2891 -4.13,-1.543 -8.58,-2.3125 -13.37,-2.3125"
         style="fill:#231f20;fill-opacity:1;fill-rule:nonzero;stroke:none"
         id="path86" /><path
         d="m 1401.58,102.168 h 7.17 V 90.7422 l 1.76,2.2656 c 5.56,7.1292 12.48,10.7032 20.73,10.7032 7.52,0 13.57,-2.531 18.16,-7.5899 4.59,-5.0469 6.89,-11.707 6.89,-19.9492 V 34.7852 h -3.59 -3.59 v 40.9375 c 0,6.25 -1.74,11.2968 -5.2,15.125 -3.47,3.8398 -8.05,5.7539 -13.77,5.7539 -6.35,0 -12.11,-2.9297 -17.29,-8.7891 -1.46,-1.6602 -2.83,-3.5156 -4.1,-5.5664 V 34.7852 h -3.58 -3.59 v 67.3828"
         style="fill:#231f20;fill-opacity:1;fill-rule:nonzero;stroke:none"
         id="path88" /><path
         d="m 1507.64,37.1289 c -3.42,-2.5859 -7.75,-3.8867 -12.97,-3.8867 -5.12,0 -9.18,1.4336 -12.15,4.2851 -2.99,2.8633 -4.47,6.75 -4.47,11.6915 v 47.0117 h -18.09 v 5.9375 h 18.09 v 16.258 l 4.98,6.008 h 0.08 2.11 v -2.493 -19.773 h 18.1 v -5.9375 h -18.1 v -44.961 c 0,-3.7695 0.83,-6.5234 2.49,-8.2812 1.67,-1.7578 4.27,-2.6367 7.84,-2.6367 4.98,0 9.01,1.25 12.09,3.7304 v -6.9531"
         style="fill:#231f20;fill-opacity:1;fill-rule:nonzero;stroke:none"
         id="path90" /><path
         d="m 1566.15,48.4453 c 5.26,5.4883 7.88,12.1406 7.88,19.9531 0,7.8594 -2.62,14.5508 -7.88,20.0782 -5.24,5.5078 -11.58,8.2695 -19,8.2695 -7.42,0 -13.76,-2.7617 -19.01,-8.2695 -5.25,-5.5274 -7.87,-12.2188 -7.87,-20.0782 0,-7.8125 2.62,-14.4648 7.87,-19.9531 5.25,-5.4961 11.59,-8.2422 19.01,-8.2422 7.42,0 13.76,2.7461 19,8.2422 z m -43.69,-5.3515 c -6.4,6.5742 -9.59,15 -9.59,25.3046 0,10.3516 3.19,18.8282 9.59,25.418 6.4,6.5936 14.63,9.8946 24.69,9.8946 10.06,0 18.28,-3.301 24.69,-9.8946 6.39,-6.5898 9.59,-15.0664 9.59,-25.418 0,-10.3046 -3.2,-18.7304 -9.59,-25.3046 -6.41,-6.5625 -14.63,-9.8516 -24.69,-9.8516 -10.06,0 -18.29,3.2891 -24.69,9.8516"
         style="fill:#231f20;fill-opacity:1;fill-rule:nonzero;stroke:none"
         id="path92" /><path
         d="m 1655.86,96.6016 c -8.26,0 -14.9,-2.5899 -19.92,-7.7618 -5.04,-5.1796 -7.54,-11.996 -7.54,-20.4414 0,-7.7539 2.66,-14.375 8.01,-19.8437 5.35,-5.4688 11.8,-8.2031 19.38,-8.2031 5.5,0 10.33,1.1718 14.43,3.5156 1.8,1.0234 3.32,2.2187 4.53,3.5937 v 41.7383 c -1.21,1.2696 -2.81,2.4727 -4.75,3.5938 -4.35,2.539 -9.06,3.8086 -14.14,3.8086 z m 0.22,-63.3594 c -10.61,0 -19.14,3.2226 -25.63,9.668 -6.5,6.4453 -9.74,14.9414 -9.74,25.4882 0,10.1172 3.36,18.5274 10.06,25.2344 6.72,6.7192 15.15,10.0782 25.31,10.0782 6.48,0 12.28,-1.691 17.36,-5.0587 l 1.31,-0.8789 v 39.3356 h 3.59 3.6 V 34.7852 h -3.6 -3.59 v 4.7656 l -1.52,-1.0352 C 1667.99,35 1662.27,33.2422 1656.08,33.2422"
         style="fill:#231f20;fill-opacity:1;fill-rule:nonzero;stroke:none"
         id="path94" /><path
         d="m 1748.21,76.0156 c -0.78,5.3242 -2.62,9.7149 -5.49,13.1836 -4.1,5.0274 -9.73,7.5469 -16.86,7.5469 -6.34,0 -11.75,-2.7344 -16.25,-8.1992 -2.93,-3.6172 -4.94,-7.793 -6.01,-12.5313 z m -17.54,-42.7734 c -10.29,0 -18.73,3.2891 -25.29,9.8516 -6.59,6.5742 -9.87,15 -9.87,25.3046 0,10.3516 2.83,18.8282 8.5,25.418 5.66,6.5936 12.95,9.8946 21.83,9.8946 9.71,0 17.21,-3.086 22.49,-9.2383 4.98,-5.6641 7.59,-13.7188 7.83,-24.1602 h -53.21 v -1.543 c 0,-7.7148 2.74,-14.2968 8.19,-19.7382 5.47,-5.4454 12.09,-8.1719 19.84,-8.1719 4.69,0 9.04,0.75 13.11,2.2539 4.04,1.5039 8.1,3.8789 12.15,7.1211 v -7.3906 c -4.01,-3.3243 -8.07,-5.754 -12.19,-7.2891 -4.14,-1.543 -8.6,-2.3125 -13.38,-2.3125"
         style="fill:#231f20;fill-opacity:1;fill-rule:nonzero;stroke:none"
         id="path96" /><path
         d="m 1770.36,137.109 h 7.16 V 34.7852 h -7.16 V 137.109"
         style="fill:#231f20;fill-opacity:1;fill-rule:nonzero;stroke:none"
         id="path98" /><path
         d="m 1795.55,137.109 h 7.19 V 34.7852 h -7.19 V 137.109"
         style="fill:#231f20;fill-opacity:1;fill-rule:nonzero;stroke:none"
         id="path100" /><path
         d="m 1854.81,69.7266 c -8.65,-0.2071 -16.11,-2.0821 -22.42,-5.6446 -6.55,-3.7617 -9.81,-8.3007 -9.81,-13.6211 0,-3.0781 1.29,-5.6562 3.89,-7.7265 2.58,-2.0821 5.78,-3.1172 9.59,-3.1172 3.75,0 7.34,0.793 10.76,2.3867 3.42,1.582 6.08,3.6992 7.99,6.3359 z m -21.39,-36.4844 c -4.98,0 -9.18,1.6289 -12.59,4.8711 -3.42,3.2539 -5.14,7.2383 -5.14,11.9844 0,7.6171 3.75,13.7421 11.21,18.3789 7.19,4.4922 16.48,6.8164 27.91,6.9531 v 8.4961 c 0,4.4922 -1.23,7.793 -3.67,9.8906 -2.44,2.1016 -6.27,3.1563 -11.49,3.1563 -3.73,0 -7.22,-0.6954 -10.52,-2.0508 -3.29,-1.375 -6.55,-3.4766 -9.77,-6.3086 v 7.6953 c 3.56,2.5859 7.11,4.4724 10.63,5.6444 3.51,1.172 7.36,1.758 11.56,1.758 6.31,0 11.29,-1.555 14.94,-4.6602 3.67,-3.0938 5.49,-7.2852 5.49,-12.5586 v -42.918 c 0,-1.125 0.19,-1.9414 0.54,-2.4531 0.38,-0.5156 0.94,-0.7695 1.74,-0.7695 0.59,0 1.76,0.5547 3.54,1.6797 1.79,1.121 3.63,2.4726 5.54,4.0312 l 0.06,-5.5664 c -2.18,-1.9023 -4.66,-3.5547 -7.38,-4.9414 -2.75,-1.3945 -4.92,-2.0859 -6.52,-2.0859 -1.53,0 -2.68,0.6914 -3.48,2.0859 -0.82,1.3867 -1.21,3.3789 -1.21,5.9687 v 0.1485 c -2.11,-1.7617 -4.57,-3.3711 -7.4,-4.836 -4.79,-2.3945 -9.46,-3.5937 -13.99,-3.5937"
         style="fill:#231f20;fill-opacity:1;fill-rule:nonzero;stroke:none"
         id="path102" /><path
         d="m 1951.18,90.7422 c -3.19,2.1016 -6.21,3.6211 -9.07,4.5781 -2.85,0.9492 -5.82,1.4258 -8.9,1.4258 -4.14,0 -7.68,-1.0313 -10.59,-3.1133 -2.91,-2.0703 -4.35,-4.5703 -4.35,-7.5 0,-3.0859 0.99,-5.5469 2.98,-7.4023 2.02,-1.8555 6.02,-3.9571 12.02,-6.3008 7.81,-3.0742 13.06,-6.0508 15.8,-8.9336 2.75,-2.8828 4.12,-6.8633 4.12,-11.9336 0,-5.0391 -2.17,-9.3437 -6.51,-12.9297 -4.35,-3.5937 -9.53,-5.3906 -15.52,-5.3906 -2.74,0 -5.67,0.4687 -8.81,1.3945 -3.17,0.9297 -6.97,2.4414 -11.47,4.543 v 7.0312 c 4.36,-2.1484 8.11,-3.6914 11.29,-4.6093 3.17,-0.9375 6.17,-1.3985 9.01,-1.3985 4.14,0 7.69,1.2149 10.62,3.625 2.93,2.4219 4.4,5.3321 4.4,8.75 0,2.9297 -1.04,5.3047 -3.11,7.1094 -2.05,1.7578 -6.13,3.8594 -12.28,6.2969 -7.66,3.0273 -12.84,5.9297 -15.51,8.7226 -2.72,2.7735 -4.06,6.5821 -4.06,11.4258 0,4.7735 2.14,8.9063 6.48,12.375 4.32,3.4652 9.49,5.2032 15.49,5.2032 3.03,0 5.96,-0.469 8.79,-1.398 2.85,-0.926 5.9,-2.4419 9.18,-4.5396 v -7.0312"
         style="fill:#231f20;fill-opacity:1;fill-rule:nonzero;stroke:none"
         id="path104" /><path
         d="m 2003.48,69.7266 c -8.65,-0.2071 -16.11,-2.0821 -22.42,-5.6446 -6.54,-3.7617 -9.81,-8.3007 -9.81,-13.6211 0,-3.0781 1.29,-5.6562 3.89,-7.7265 2.58,-2.0821 5.78,-3.1172 9.59,-3.1172 3.75,0 7.35,0.793 10.76,2.3867 3.42,1.582 6.08,3.6992 7.99,6.3359 z m -21.39,-36.4844 c -4.98,0 -9.17,1.6289 -12.59,4.8711 -3.42,3.2539 -5.14,7.2383 -5.14,11.9844 0,7.6171 3.75,13.7421 11.21,18.3789 7.19,4.4922 16.49,6.8164 27.91,6.9531 v 8.4961 c 0,4.4922 -1.23,7.793 -3.67,9.8906 -2.44,2.1016 -6.27,3.1563 -11.48,3.1563 -3.74,0 -7.23,-0.6954 -10.53,-2.0508 -3.28,-1.375 -6.55,-3.4766 -9.77,-6.3086 v 7.6953 c 3.56,2.5859 7.11,4.4724 10.63,5.6444 3.51,1.172 7.36,1.758 11.56,1.758 6.31,0 11.29,-1.555 14.94,-4.6602 3.67,-3.0938 5.49,-7.2852 5.49,-12.5586 v -42.918 c 0,-1.125 0.19,-1.9414 0.55,-2.4531 0.37,-0.5156 0.93,-0.7695 1.73,-0.7695 0.59,0 1.76,0.5547 3.54,1.6797 1.8,1.121 3.63,2.4726 5.55,4.0312 l 0.06,-5.5664 c -2.19,-1.9023 -4.67,-3.5547 -7.39,-4.9414 -2.75,-1.3945 -4.92,-2.0859 -6.52,-2.0859 -1.52,0 -2.68,0.6914 -3.48,2.0859 -0.82,1.3867 -1.21,3.3789 -1.21,5.9687 v 0.1485 c -2.11,-1.7617 -4.57,-3.3711 -7.4,-4.836 -4.79,-2.3945 -9.45,-3.5937 -13.99,-3.5937"
         style="fill:#231f20;fill-opacity:1;fill-rule:nonzero;stroke:none"
         id="path106" /><path
         d="m 2033.25,102.168 h 7.18 V 90.7422 l 1.76,2.2656 c 5.57,7.1292 12.46,10.7032 20.73,10.7032 7.51,0 13.57,-2.531 18.16,-7.5899 4.59,-5.0469 6.87,-11.707 6.87,-19.9492 V 34.7852 h -3.57 -3.59 v 40.9375 c 0,6.25 -1.74,11.2968 -5.2,15.125 -3.48,3.8398 -8.07,5.7539 -13.77,5.7539 -6.37,0 -12.13,-2.9297 -17.28,-8.7891 -1.47,-1.6602 -2.86,-3.5156 -4.11,-5.5664 V 34.7852 h -3.59 -3.59 v 67.3828"
         style="fill:#231f20;fill-opacity:1;fill-rule:nonzero;stroke:none"
         id="path108" /><path
         d="m 2107.62,102.168 h 7.19 V 34.7852 h -7.19 z m 0,34.941 h 7.25 v -12.304 h -7.25 v 12.304"
         style="fill:#231f20;fill-opacity:1;fill-rule:nonzero;stroke:none"
         id="path110" /><path
         d="m 2172.5,37.1289 c -3.41,-2.5859 -7.73,-3.8867 -12.94,-3.8867 -5.14,0 -9.2,1.4336 -12.17,4.2851 -2.99,2.8633 -4.47,6.75 -4.47,11.6915 v 47.0117 h -18.09 v 5.9375 h 18.09 v 16.258 l 4.98,6.008 h 0.07 2.13 v -2.493 -19.773 h 18.09 v -5.9375 h -18.09 v -44.961 c 0,-3.7695 0.82,-6.5234 2.48,-8.2812 1.66,-1.7578 4.28,-2.6367 7.85,-2.6367 4.99,0 9.01,1.25 12.07,3.7304 v -6.9531"
         style="fill:#231f20;fill-opacity:1;fill-rule:nonzero;stroke:none"
         id="path112" /><path
         d="m 2220.51,69.7266 c -8.65,-0.2071 -16.11,-2.0821 -22.42,-5.6446 -6.54,-3.7617 -9.8,-8.3007 -9.8,-13.6211 0,-3.0781 1.29,-5.6562 3.88,-7.7265 2.58,-2.0821 5.78,-3.1172 9.59,-3.1172 3.75,0 7.35,0.793 10.76,2.3867 3.42,1.582 6.08,3.6992 7.99,6.3359 z m -15.31,41.8944 -23.28,23.945 h 11.78 l 16.19,-23.945 z m -6.07,-78.3788 c -4.98,0 -9.18,1.6289 -12.6,4.8711 -3.42,3.2539 -5.14,7.2383 -5.14,11.9844 0,7.6171 3.75,13.7421 11.21,18.3789 7.19,4.4922 16.49,6.8164 27.91,6.9531 v 8.4961 c 0,4.4922 -1.23,7.793 -3.67,9.8906 -2.44,2.1016 -6.27,3.1563 -11.48,3.1563 -3.73,0 -7.23,-0.6954 -10.53,-2.0508 -3.28,-1.375 -6.54,-3.4766 -9.77,-6.3086 v 7.6953 c 3.56,2.5859 7.11,4.4724 10.63,5.6444 3.51,1.172 7.36,1.758 11.56,1.758 6.31,0 11.29,-1.555 14.94,-4.6602 3.67,-3.0938 5.49,-7.2852 5.49,-12.5586 v -42.918 c 0,-1.125 0.2,-1.9414 0.55,-2.4531 0.37,-0.5156 0.94,-0.7695 1.74,-0.7695 0.58,0 1.75,0.5547 3.53,1.6797 1.8,1.121 3.63,2.4726 5.55,4.0312 l 0.06,-5.5664 c -2.19,-1.9023 -4.67,-3.5547 -7.39,-4.9414 -2.75,-1.3945 -4.92,-2.0859 -6.52,-2.0859 -1.52,0 -2.68,0.6914 -3.48,2.0859 -0.82,1.3867 -1.21,3.3789 -1.21,5.9687 v 0.1485 c -2.11,-1.7617 -4.57,-3.3711 -7.4,-4.836 -4.78,-2.3945 -9.45,-3.5937 -13.98,-3.5937"
         style="fill:#231f20;fill-opacity:1;fill-rule:nonzero;stroke:none"
         id="path114" /><path
         d="m 2329.13,76.0156 c -0.79,5.3242 -2.62,9.7149 -5.51,13.1836 -4.1,5.0274 -9.71,7.5469 -16.84,7.5469 -6.35,0 -11.78,-2.7344 -16.27,-8.1992 -2.93,-3.6172 -4.92,-7.793 -5.99,-12.5313 z m -17.54,-42.7734 c -10.32,0 -18.75,3.2891 -25.32,9.8516 -6.56,6.5742 -9.84,15 -9.84,25.3046 0,10.3516 2.83,18.8282 8.5,25.418 5.66,6.5936 12.93,9.8946 21.81,9.8946 9.73,0 17.23,-3.086 22.5,-9.2383 4.98,-5.6641 7.58,-13.7188 7.84,-24.1602 h -53.23 v -1.543 c 0,-7.7148 2.74,-14.2968 8.21,-19.7382 5.46,-5.4454 12.07,-8.1719 19.84,-8.1719 4.67,0 9.04,0.75 13.09,2.2539 4.06,1.5039 8.1,3.8789 12.16,7.1211 v -7.3906 c -4.02,-3.3243 -8.08,-5.754 -12.2,-7.2891 -4.12,-1.543 -8.58,-2.3125 -13.36,-2.3125"
         style="fill:#231f20;fill-opacity:1;fill-rule:nonzero;stroke:none"
         id="path116" /><path
         d="m 2414.01,96.6016 c -8.24,0 -14.88,-2.5899 -19.92,-7.7618 -5.02,-5.1796 -7.54,-11.996 -7.54,-20.4414 0,-7.7539 2.67,-14.375 8.03,-19.8437 5.33,-5.4688 11.79,-8.2031 19.37,-8.2031 5.51,0 10.31,1.1718 14.41,3.5156 1.82,1.0234 3.32,2.2187 4.56,3.5937 v 41.7383 c -1.24,1.2696 -2.82,2.4727 -4.77,3.5938 -4.36,2.539 -9.06,3.8086 -14.14,3.8086 z m 0.23,-63.3594 c -10.6,0 -19.16,3.2226 -25.64,9.668 -6.51,6.4453 -9.75,14.9414 -9.75,25.4882 0,10.1172 3.36,18.5274 10.08,25.2344 6.72,6.7192 15.14,10.0782 25.31,10.0782 6.49,0 12.27,-1.691 17.35,-5.0587 l 1.33,-0.8789 v 39.3356 h 3.59 3.57 V 34.7852 h -3.57 -3.59 v 4.7656 l -1.55,-1.0352 C 2426.14,35 2420.43,33.2422 2414.24,33.2422"
         style="fill:#231f20;fill-opacity:1;fill-rule:nonzero;stroke:none"
         id="path118" /><path
         d="m 2506.37,76.0156 c -0.78,5.3242 -2.62,9.7149 -5.51,13.1836 -4.1,5.0274 -9.7,7.5469 -16.83,7.5469 -6.35,0 -11.78,-2.7344 -16.27,-8.1992 -2.93,-3.6172 -4.92,-7.793 -6,-12.5313 z m -17.54,-42.7734 c -10.31,0 -18.75,3.2891 -25.31,9.8516 -6.56,6.5742 -9.84,15 -9.84,25.3046 0,10.3516 2.83,18.8282 8.49,25.418 5.67,6.5936 12.93,9.8946 21.82,9.8946 9.73,0 17.23,-3.086 22.5,-9.2383 4.98,-5.6641 7.58,-13.7188 7.83,-24.1602 h -53.22 v -1.543 c 0,-7.7148 2.73,-14.2968 8.2,-19.7382 5.47,-5.4454 12.07,-8.1719 19.85,-8.1719 4.66,0 9.04,0.75 13.08,2.2539 4.06,1.5039 8.11,3.8789 12.17,7.1211 v -7.3906 c -4.02,-3.3243 -8.09,-5.754 -12.21,-7.2891 -4.12,-1.543 -8.57,-2.3125 -13.36,-2.3125"
         style="fill:#231f20;fill-opacity:1;fill-rule:nonzero;stroke:none"
         id="path120" /><path
         d="m 2528.5,137.109 h 7.19 V 34.7852 h -7.19 V 137.109"
         style="fill:#231f20;fill-opacity:1;fill-rule:nonzero;stroke:none"
         id="path122" /><path
         d="m 2553.72,137.109 h 7.16 V 34.7852 h -7.16 V 137.109"
         style="fill:#231f20;fill-opacity:1;fill-rule:nonzero;stroke:none"
         id="path124" /><path
         d="m 2612.95,69.7266 c -8.63,-0.2071 -16.11,-2.0821 -22.4,-5.6446 -6.54,-3.7617 -9.82,-8.3007 -9.82,-13.6211 0,-3.0781 1.29,-5.6562 3.88,-7.7265 2.58,-2.0821 5.79,-3.1172 9.59,-3.1172 3.77,0 7.35,0.793 10.79,2.3867 3.39,1.582 6.07,3.6992 7.96,6.3359 z m -21.38,-36.4844 c -4.98,0 -9.18,1.6289 -12.6,4.8711 -3.42,3.2539 -5.12,7.2383 -5.12,11.9844 0,7.6171 3.73,13.7421 11.21,18.3789 7.17,4.4922 16.47,6.8164 27.89,6.9531 v 8.4961 c 0,4.4922 -1.21,7.793 -3.65,9.8906 -2.44,2.1016 -6.29,3.1563 -11.5,3.1563 -3.71,0 -7.21,-0.6954 -10.51,-2.0508 -3.3,-1.375 -6.56,-3.4766 -9.79,-6.3086 v 7.6953 c 3.58,2.5859 7.11,4.4724 10.63,5.6444 3.52,1.172 7.36,1.758 11.58,1.758 6.29,0 11.27,-1.555 14.94,-4.6602 3.66,-3.0938 5.49,-7.2852 5.49,-12.5586 v -42.918 c 0,-1.125 0.18,-1.9414 0.55,-2.4531 0.37,-0.5156 0.94,-0.7695 1.72,-0.7695 0.58,0 1.77,0.5547 3.55,1.6797 1.78,1.121 3.63,2.4726 5.53,4.0312 l 0.08,-5.5664 c -2.21,-1.9023 -4.67,-3.5547 -7.4,-4.9414 -2.74,-1.3945 -4.91,-2.0859 -6.53,-2.0859 -1.5,0 -2.67,0.6914 -3.47,2.0859 -0.81,1.3867 -1.22,3.3789 -1.22,5.9687 v 0.1485 c -2.09,-1.7617 -4.57,-3.3711 -7.38,-4.836 -4.8,-2.3945 -9.45,-3.5937 -14,-3.5937"
         style="fill:#231f20;fill-opacity:1;fill-rule:nonzero;stroke:none"
         id="path126" /><path
         d="m 2709.32,90.7422 c -3.18,2.1016 -6.19,3.6211 -9.04,4.5781 -2.87,0.9492 -5.84,1.4258 -8.91,1.4258 -4.16,0 -7.69,-1.0313 -10.6,-3.1133 -2.89,-2.0703 -4.36,-4.5703 -4.36,-7.5 0,-3.0859 1,-5.5469 3.01,-7.4023 1.99,-1.8555 6,-3.9571 11.99,-6.3008 7.81,-3.0742 13.09,-6.0508 15.82,-8.9336 2.74,-2.8828 4.12,-6.8633 4.12,-11.9336 0,-5.0391 -2.17,-9.3437 -6.52,-12.9297 -4.34,-3.5937 -9.51,-5.3906 -15.51,-5.3906 -2.73,0 -5.68,0.4687 -8.83,1.3945 -3.14,0.9297 -6.97,2.4414 -11.44,4.543 v 7.0312 c 4.33,-2.1484 8.1,-3.6914 11.27,-4.6093 3.18,-0.9375 6.17,-1.3985 9,-1.3985 4.16,0 7.7,1.2149 10.63,3.625 2.93,2.4219 4.39,5.3321 4.39,8.75 0,2.9297 -1.03,5.3047 -3.09,7.1094 -2.05,1.7578 -6.15,3.8594 -12.3,6.2969 -7.66,3.0273 -12.83,5.9297 -15.51,8.7226 -2.71,2.7735 -4.06,6.5821 -4.06,11.4258 0,4.7735 2.17,8.9063 6.48,12.375 4.32,3.4652 9.5,5.2032 15.51,5.2032 3.03,0 5.96,-0.469 8.79,-1.398 2.83,-0.926 5.88,-2.4419 9.16,-4.5396 v -7.0312"
         style="fill:#231f20;fill-opacity:1;fill-rule:nonzero;stroke:none"
         id="path128" /><path
         d="m 2775.55,48.4453 c 5.26,5.4883 7.87,12.1406 7.87,19.9531 0,7.8594 -2.61,14.5508 -7.87,20.0782 -5.25,5.5078 -11.58,8.2695 -19,8.2695 -7.42,0 -13.77,-2.7617 -19.01,-8.2695 -5.25,-5.5274 -7.87,-12.2188 -7.87,-20.0782 0,-7.8125 2.62,-14.4648 7.87,-19.9531 5.24,-5.4961 11.59,-8.2422 19.01,-8.2422 7.42,0 13.75,2.7461 19,8.2422 z m -43.69,-5.3515 c -6.41,6.5742 -9.59,15 -9.59,25.3046 0,10.3516 3.18,18.8282 9.59,25.418 6.39,6.5936 14.63,9.8946 24.69,9.8946 10.06,0 18.28,-3.301 24.69,-9.8946 6.38,-6.5898 9.59,-15.0664 9.59,-25.418 0,-10.3046 -3.21,-18.7304 -9.59,-25.3046 -6.41,-6.5625 -14.63,-9.8516 -24.69,-9.8516 -10.06,0 -18.3,3.2891 -24.69,9.8516"
         style="fill:#231f20;fill-opacity:1;fill-rule:nonzero;stroke:none"
         id="path130" /><path
         d="m 2855.2,36.8359 c -3.52,-1.3203 -6.62,-2.2461 -9.3,-2.7851 -2.69,-0.5352 -5.64,-0.8086 -8.86,-0.8086 -9.87,0 -17.93,3.2891 -24.2,9.8516 -6.29,6.5742 -9.42,15 -9.42,25.3046 0,10.3516 3.13,18.8282 9.42,25.418 6.27,6.5936 14.33,9.8946 24.2,9.8946 2.79,0 5.41,-0.273 7.87,-0.813 2.46,-0.535 5.39,-1.464 8.75,-2.781 v -7.4022 c -3.62,1.3946 -6.72,2.375 -9.3,2.918 -2.6,0.5469 -5.37,0.8203 -8.34,0.8203 -6.99,0 -12.93,-2.7343 -17.85,-8.1992 -4.9,-5.4726 -7.34,-12.082 -7.34,-19.8555 0,-8.6328 2.38,-15.4492 7.16,-20.4296 4.79,-4.9805 11.35,-7.4727 19.71,-7.4727 3.03,0 5.82,0.2734 8.42,0.8203 2.58,0.5469 5.6,1.5274 9.08,2.9219 v -7.4024"
         style="fill:#231f20;fill-opacity:1;fill-rule:nonzero;stroke:none"
         id="path132" /><path
         d="m 2868.87,102.168 h 7.17 V 34.7852 h -7.17 z m 0,34.941 h 7.25 v -12.304 h -7.25 v 12.304"
         style="fill:#231f20;fill-opacity:1;fill-rule:nonzero;stroke:none"
         id="path134" /><path
         d="m 2930.51,69.7266 c -8.65,-0.2071 -16.11,-2.0821 -22.42,-5.6446 -6.54,-3.7617 -9.8,-8.3007 -9.8,-13.6211 0,-3.0781 1.29,-5.6562 3.88,-7.7265 2.58,-2.0821 5.78,-3.1172 9.59,-3.1172 3.75,0 7.35,0.793 10.76,2.3867 3.42,1.582 6.08,3.6992 7.99,6.3359 z m -21.38,-36.4844 c -4.98,0 -9.18,1.6289 -12.6,4.8711 -3.42,3.2539 -5.14,7.2383 -5.14,11.9844 0,7.6171 3.75,13.7421 11.21,18.3789 7.19,4.4922 16.49,6.8164 27.91,6.9531 v 8.4961 c 0,4.4922 -1.23,7.793 -3.67,9.8906 -2.44,2.1016 -6.27,3.1563 -11.48,3.1563 -3.73,0 -7.23,-0.6954 -10.53,-2.0508 -3.28,-1.375 -6.54,-3.4766 -9.77,-6.3086 v 7.6953 c 3.56,2.5859 7.11,4.4724 10.63,5.6444 3.51,1.172 7.36,1.758 11.56,1.758 6.31,0 11.29,-1.555 14.94,-4.6602 3.67,-3.0938 5.49,-7.2852 5.49,-12.5586 v -42.918 c 0,-1.125 0.2,-1.9414 0.55,-2.4531 0.37,-0.5156 0.94,-0.7695 1.74,-0.7695 0.58,0 1.75,0.5547 3.53,1.6797 1.8,1.121 3.63,2.4726 5.55,4.0312 l 0.06,-5.5664 c -2.19,-1.9023 -4.67,-3.5547 -7.39,-4.9414 -2.75,-1.3945 -4.92,-2.0859 -6.52,-2.0859 -1.52,0 -2.68,0.6914 -3.48,2.0859 -0.82,1.3867 -1.21,3.3789 -1.21,5.9687 v 0.1485 c -2.11,-1.7617 -4.57,-3.3711 -7.4,-4.836 -4.78,-2.3945 -9.45,-3.5937 -13.98,-3.5937"
         style="fill:#231f20;fill-opacity:1;fill-rule:nonzero;stroke:none"
         id="path136" /><path
         d="m 2960.94,137.109 h 7.17 V 34.7852 h -7.17 V 137.109"
         style="fill:#231f20;fill-opacity:1;fill-rule:nonzero;stroke:none"
         id="path138" /><path
         d="m 2988.4,102.168 h 7.19 V 34.7852 h -7.19 z m 0,34.941 h 7.25 v -12.304 h -7.25 v 12.304"
         style="fill:#231f20;fill-opacity:1;fill-rule:nonzero;stroke:none"
         id="path140" /><path
         d="m 3053.31,37.1289 c -3.42,-2.5859 -7.76,-3.8867 -12.97,-3.8867 -5.12,0 -9.18,1.4336 -12.15,4.2851 -2.99,2.8633 -4.47,6.75 -4.47,11.6915 v 47.0117 h -18.09 v 5.9375 h 18.09 v 16.258 l 4.98,6.008 h 0.07 2.11 v -2.493 -19.773 h 18.11 v -5.9375 h -18.11 v -44.961 c 0,-3.7695 0.84,-6.5234 2.5,-8.2812 1.66,-1.7578 4.26,-2.6367 7.84,-2.6367 4.98,0 9,1.25 12.09,3.7304 v -6.9531"
         style="fill:#231f20;fill-opacity:1;fill-rule:nonzero;stroke:none"
         id="path142" /><path
         d="m 3101.29,69.7266 c -8.63,-0.2071 -16.11,-2.0821 -22.4,-5.6446 -6.54,-3.7617 -9.82,-8.3007 -9.82,-13.6211 0,-3.0781 1.29,-5.6562 3.88,-7.7265 2.58,-2.0821 5.79,-3.1172 9.59,-3.1172 3.77,0 7.35,0.793 10.79,2.3867 3.39,1.582 6.07,3.6992 7.96,6.3359 z m -15.29,41.8944 -23.3,23.945 h 11.8 l 16.19,-23.945 z m -6.09,-78.3788 c -4.98,0 -9.18,1.6289 -12.6,4.8711 -3.42,3.2539 -5.12,7.2383 -5.12,11.9844 0,7.6171 3.73,13.7421 11.21,18.3789 7.17,4.4922 16.47,6.8164 27.89,6.9531 v 8.4961 c 0,4.4922 -1.21,7.793 -3.65,9.8906 -2.44,2.1016 -6.29,3.1563 -11.5,3.1563 -3.71,0 -7.21,-0.6954 -10.51,-2.0508 -3.3,-1.375 -6.56,-3.4766 -9.79,-6.3086 v 7.6953 c 3.58,2.5859 7.11,4.4724 10.63,5.6444 3.52,1.172 7.36,1.758 11.58,1.758 6.29,0 11.27,-1.555 14.94,-4.6602 3.66,-3.0938 5.49,-7.2852 5.49,-12.5586 v -42.918 c 0,-1.125 0.18,-1.9414 0.55,-2.4531 0.37,-0.5156 0.94,-0.7695 1.72,-0.7695 0.58,0 1.77,0.5547 3.55,1.6797 1.78,1.121 3.63,2.4726 5.53,4.0312 l 0.08,-5.5664 c -2.21,-1.9023 -4.67,-3.5547 -7.41,-4.9414 -2.73,-1.3945 -4.9,-2.0859 -6.52,-2.0859 -1.5,0 -2.67,0.6914 -3.48,2.0859 -0.8,1.3867 -1.21,3.3789 -1.21,5.9687 v 0.1485 c -2.09,-1.7617 -4.57,-3.3711 -7.38,-4.836 -4.8,-2.3945 -9.45,-3.5937 -14,-3.5937"
         style="fill:#231f20;fill-opacity:1;fill-rule:nonzero;stroke:none"
         id="path144" /><path
         d="m 539.707,28.3789 c -52.93,0.2227 -95.781,43.0938 -95.781,95.9571 v 132.527 h 95.859 L 539.707,28.3789 v 0"
         style="fill:#ed2d31;fill-opacity:1;fill-rule:nonzero;stroke:none"
         id="path146" /><path
         d="m 539.707,256.863 h 96.602 V 124.336 c 0,-53.0079 -43.067,-95.9571 -96.172,-95.9571 h -0.43 v 228.4841 0"
         style="fill:#3463b7;fill-opacity:1;fill-rule:nonzero;stroke:none"
         id="path148" /></g></g></svg>
