<?xml version="1.0" encoding="UTF-8"?>
<svg id="Livello_1" data-name="Livello 1" xmlns="http://www.w3.org/2000/svg" viewBox="0 0 234.4 46.86">
  <defs>
    <style>
      .cls-1 {
        fill: #ea4f96;
      }

      .cls-2 {
        fill: #f088b6;
      }

      .cls-3 {
        fill: #1d1d1b;
      }
    </style>
  </defs>
  <g>
    <path class="cls-3" d="m63.1,24.78c0-4.97,3.1-8.51,7.7-8.51,3.35,0,5.03,2.17,5.5,3.01h.19v-2.61h2.48v13.23c0,.5.31.75.81.75h.75v2.17h-1.58c-1.33,0-2.33-.99-2.36-2.39v-.16h-.19c-.4.65-1.89,2.95-5.4,2.95-4.63,0-7.89-3.51-7.89-8.45Zm13.48.03c0-4.01-2.48-6.3-5.5-6.3-3.17,0-5.46,2.61-5.46,6.3s2.39,6.21,5.5,6.21c3.38,0,5.46-2.83,5.46-6.21Z"/>
    <path class="cls-3" d="m86.54,30.71h3.26V11.65h-3.26v-2.11h5.71v21.18h3.26v2.11h-8.97v-2.11Z"/>
    <path class="cls-3" d="m100.61,29.81l9.84-10.87v-.19h-9.56v-2.08h11.86v3.01l-9.84,10.87v.19h10v2.08h-12.3v-3.01Z"/>
    <path class="cls-3" d="m119.7,9.54h2.45v9.5h.19c.68-1.46,2.48-2.76,5-2.76,3.76,0,6.09,2.83,6.09,6.4v10.15h-2.45v-10c0-2.58-1.96-4.25-4.22-4.25-2.48,0-4.6,1.83-4.6,4.44v9.81h-2.45V9.54Z"/>
    <path class="cls-3" d="m139.61,24.81c0-5.15,3.54-8.54,7.83-8.54,4.88,0,7.67,3.42,7.67,8.26v.9h-12.98c.03,3.6,2.14,5.62,5.5,5.62,2.27,0,4.35-1.3,4.88-3.54l2.39.56c-.9,3.01-3.57,5.15-7.3,5.15-4.91,0-7.98-3.45-7.98-8.42Zm12.98-1.37c-.16-3.35-2.48-4.97-5.15-4.97s-5.06,1.92-5.25,4.97h10.4Z"/>
    <path class="cls-3" d="m163.7,18.76h-3.04v-2.08h5.5v16.15h-2.45v-14.07Zm-.56-6.8c0-.99.75-1.77,1.77-1.77s1.8.78,1.8,1.77-.75,1.8-1.8,1.8-1.77-.78-1.77-1.8Z"/>
    <path class="cls-3" d="m174.45,16.68h2.45v2.33h.19c.78-1.49,2.33-2.73,4.72-2.73s4.19,1.18,5.09,2.95h.22c1.09-2.08,2.86-2.95,5.12-2.95,3.6,0,5.93,2.55,5.93,6.09v10.46h-2.45v-9.66c0-3.04-1.52-4.6-3.91-4.6-2.27,0-4.25,1.61-4.25,4.63v9.63h-2.45v-10.12c0-2.58-1.74-4.13-4.01-4.13s-4.19,1.8-4.19,4.53v9.72h-2.45v-16.15Z"/>
    <path class="cls-3" d="m204.35,24.81c0-5.15,3.54-8.54,7.83-8.54,4.88,0,7.67,3.42,7.67,8.26v.9h-12.98c.03,3.6,2.14,5.62,5.5,5.62,2.27,0,4.35-1.3,4.88-3.54l2.39.56c-.9,3.01-3.57,5.15-7.3,5.15-4.91,0-7.98-3.45-7.98-8.42Zm12.98-1.37c-.16-3.35-2.48-4.97-5.15-4.97s-5.06,1.92-5.25,4.97h10.4Z"/>
    <path class="cls-3" d="m226.33,16.68h2.42v2.7h.19c.47-1.37,2.05-3.11,4.41-3.11h1.06v2.45h-1.46c-2.95,0-4.16,2.39-4.16,5.46v8.63h-2.45v-16.15Z"/>
  </g>
  <g>
    <path class="cls-3" d="m65.3,40.72h-1.94v-.7h4.65v.7h-1.94v5.95h-.77v-5.95Z"/>
    <path class="cls-3" d="m70.51,42.37h-.93v-.64h1.68v4.94h-.75v-4.31Zm-.17-2.08c0-.3.23-.54.54-.54s.55.24.55.54-.23.55-.55.55-.54-.24-.54-.55Z"/>
    <path class="cls-3" d="m73.48,44.2c0-1.46,1.07-2.6,2.53-2.6,1.07,0,2.02.65,2.29,1.75l-.74.17c-.13-.74-.76-1.24-1.53-1.24-1.06,0-1.77.84-1.77,1.91s.75,1.91,1.79,1.91c.77,0,1.4-.49,1.53-1.24l.74.17c-.27,1.1-1.23,1.75-2.3,1.75-1.49,0-2.54-1.13-2.54-2.59Z"/>
    <path class="cls-3" d="m81,42.37h-.93v-.64h1.68v4.94h-.75v-4.31Zm-.17-2.08c0-.3.23-.54.54-.54s.55.24.55.54-.23.55-.55.55-.54-.24-.54-.55Z"/>
    <path class="cls-3" d="m84.35,41.73h.75v.72h.06c.21-.45.74-.85,1.51-.85,1.15,0,1.84.87,1.84,1.96v3.11h-.75v-3.06c0-.79-.58-1.3-1.27-1.3-.78,0-1.39.6-1.39,1.42v2.95h-.75v-4.94Z"/>
    <path class="cls-3" d="m90.46,44.2c0-1.49,1.11-2.6,2.59-2.6s2.58,1.11,2.58,2.6-1.1,2.59-2.59,2.59-2.58-1.09-2.58-2.59Zm4.39,0c0-1.09-.75-1.91-1.82-1.91s-1.81.83-1.81,1.91.75,1.91,1.81,1.91,1.82-.81,1.82-1.91Z"/>
  </g>
  <g>
    <path class="cls-1" d="m41.7,24.32c-.44.82-3.56,5.94-16.23,13.43-8.41,4.97-15.58,7.74-19.85,9.11h49.67l-13.59-22.53Z"/>
    <path class="cls-2" d="m24.67,36.39c12.58-7.44,15.58-12.72,15.84-13.2.02-.03.02-.03.02-.03l.23-.4L27.04,0,0,46.86s4.63-1.19,7.82-2.46c4.31-1.51,10.14-4.04,16.85-8.01Z"/>
  </g>
</svg>